<?xml version="1.0" standalone="no"?>
<!DOCTYPE svg PUBLIC "-//W3C//DTD SVG 20010904//EN"
 "http://www.w3.org/TR/2001/REC-SVG-20010904/DTD/svg10.dtd">
<svg version="1.0" xmlns="http://www.w3.org/2000/svg"
 width="1478.000000pt" height="1108.000000pt" viewBox="0 0 1478.000000 1108.000000"
 preserveAspectRatio="xMidYMid meet">
<metadata>
Created by potrace 1.15, written by Peter Selinger 2001-2017
</metadata>
<g transform="translate(0.000000,1108.000000) scale(0.100000,-0.100000)"
fill="#000000" stroke="none">
<path d="M13915 8709 c-11 -6 -30 -23 -42 -38 l-23 -26 0 27 c0 15 -4 29 -9
33 -14 8 -31 -28 -31 -64 0 -35 -5 -38 -26 -16 -33 33 -44 13 -19 -35 9 -17
12 -30 9 -30 -4 0 0 -8 10 -19 10 -11 14 -25 10 -36 -4 -10 -1 -20 7 -25 11
-7 10 -13 -5 -29 -10 -11 -22 -18 -27 -16 -4 3 -10 -3 -13 -12 -4 -15 -5 -15
-4 2 1 48 -3 65 -15 65 -20 0 -14 44 6 48 9 2 17 8 17 14 0 6 -14 8 -37 4 -21
-3 -47 -6 -59 -6 -17 0 -20 -5 -16 -30 2 -17 0 -30 -5 -30 -6 0 -15 -11 -21
-25 -9 -20 -9 -23 3 -19 22 9 88 -62 80 -86 -4 -11 -11 -20 -16 -20 -5 0 -9
-4 -9 -10 0 -5 7 -7 16 -3 12 4 15 2 12 -8 -5 -16 -78 -25 -78 -10 0 19 -25
12 -38 -10 -7 -11 -19 -18 -27 -15 -8 3 -17 1 -20 -4 -12 -19 -26 -10 -41 25
-13 32 -17 34 -47 28 -17 -3 -42 -16 -55 -29 -14 -13 -30 -20 -42 -17 -17 5
-20 0 -20 -30 0 -22 -6 -37 -15 -41 -11 -4 -15 2 -15 24 0 17 -3 30 -6 30 -3
0 -27 -22 -53 -49 -38 -39 -46 -53 -38 -66 7 -13 6 -16 -2 -11 -14 9 -43 -12
-36 -25 3 -4 12 -6 19 -3 7 3 19 -2 26 -11 11 -13 9 -15 -11 -13 -18 2 -25 -2
-27 -19 -2 -13 -7 -23 -11 -23 -4 0 -8 -13 -8 -29 0 -22 4 -27 19 -23 10 2 18
-1 18 -7 0 -6 -7 -11 -15 -11 -8 0 -15 -4 -15 -10 0 -5 -3 -9 -7 -8 -5 0 -15
-2 -24 -6 -10 -4 -25 1 -42 16 -13 12 -38 22 -53 23 -23 0 -30 5 -32 23 -3 20
-1 22 15 14 30 -16 57 11 56 54 -1 20 -6 40 -12 43 -16 11 -10 113 6 107 15
-6 18 10 3 19 -18 11 -11 43 11 50 23 8 20 31 -5 27 -18 -3 -22 13 -5 24 8 5
6 10 -5 16 -9 5 -16 18 -16 28 0 11 -1 20 -3 20 -1 0 -16 -4 -34 -9 -25 -7
-33 -6 -37 6 -9 23 -7 26 9 13 24 -20 40 2 23 29 -10 17 -20 21 -40 17 -17 -3
-30 0 -35 8 -4 8 -17 15 -27 17 -10 2 -24 13 -30 24 -6 11 -12 22 -13 24 -2 2
-11 -4 -22 -13 -15 -13 -20 -14 -24 -4 -6 13 -20 0 -69 -61 -19 -22 -38 -28
-38 -10 0 13 -20 34 -40 41 -11 4 -7 9 13 17 16 6 27 17 25 24 -6 16 -56 21
-73 7 -10 -8 -14 -8 -18 2 -3 8 -6 6 -6 -6 -1 -12 -6 -16 -17 -12 -11 4 -14 0
-12 -16 2 -16 -4 -23 -24 -29 -22 -6 -28 -4 -28 8 0 14 -3 14 -20 -2 -10 -9
-26 -15 -34 -12 -9 4 -17 -1 -21 -14 -4 -10 -14 -20 -23 -20 -53 -4 -76 -10
-92 -24 -17 -15 -50 -11 -50 6 0 4 -7 6 -16 2 -9 -3 -19 -2 -23 4 -3 6 -16 4
-31 -4 -18 -9 -20 -13 -7 -13 9 0 17 -4 17 -10 0 -5 -13 -10 -30 -10 -16 0
-33 -6 -37 -12 -11 -17 -53 -18 -53 -2 0 7 -9 12 -20 11 -11 -1 -20 -7 -20
-14 0 -12 -8 -15 -52 -18 -10 0 -27 -11 -38 -23 -11 -12 -30 -22 -41 -22 -15
0 -18 -5 -14 -23 4 -16 -4 -32 -31 -62 -30 -32 -37 -47 -35 -73 1 -18 -2 -39
-8 -45 -14 -18 4 -46 20 -30 9 9 15 8 26 -3 17 -16 7 -38 -13 -30 -21 8 -44
-4 -38 -19 3 -7 -4 -23 -16 -35 -18 -18 -24 -20 -31 -9 -5 8 -9 17 -9 22 0 4
-3 7 -7 6 -16 -2 -53 14 -53 22 0 5 11 9 25 9 18 0 25 5 25 20 0 12 -7 20 -17
20 -17 1 -17 1 0 14 15 11 15 15 3 25 -8 6 -19 10 -26 9 -12 -3 -24 13 -34 44
-3 11 -12 15 -25 11 -12 -3 -18 -9 -15 -14 8 -13 -10 -11 -24 3 -9 9 -12 8
-12 -4 0 -9 -9 -18 -19 -21 -23 -6 -24 -62 -1 -78 12 -9 10 -10 -7 -6 -13 3
-23 2 -23 -3 0 -4 -11 -11 -25 -14 -22 -6 -23 -9 -15 -32 15 -38 12 -51 -12
-59 -20 -6 -20 -8 -5 -12 36 -10 15 -46 -36 -58 -19 -5 -32 -18 -42 -41 -16
-39 -50 -46 -60 -14 -3 11 -12 20 -18 20 -7 0 -18 -9 -25 -20 -7 -11 -21 -20
-32 -20 -10 0 -24 -9 -30 -20 -6 -11 -16 -20 -23 -20 -7 0 -19 -9 -26 -19 -14
-19 -15 -19 -32 2 -10 12 -18 16 -19 10 0 -7 -6 -13 -13 -13 -7 0 -19 -8 -26
-19 -9 -12 -22 -17 -40 -14 -48 8 -62 4 -96 -24 -34 -28 -51 -58 -47 -80 2 -8
-3 -10 -14 -6 -12 4 -15 2 -12 -8 3 -8 -4 -22 -15 -31 -21 -19 -30 -22 -60
-18 -18 1 -67 -42 -67 -61 0 -5 -7 -9 -15 -9 -8 0 -15 -7 -15 -15 0 -9 -11
-20 -24 -25 -13 -5 -26 -14 -28 -21 -3 -9 -9 -9 -25 -1 -17 9 -24 8 -37 -7
-10 -11 -25 -17 -36 -14 -20 5 -20 3 -21 -62 -1 -35 -17 -58 -36 -51 -7 3 -13
-1 -13 -8 0 -9 -8 -12 -24 -9 -18 4 -26 0 -31 -16 -8 -26 -45 -38 -59 -20 -6
8 -18 14 -26 14 -14 0 -50 -29 -50 -40 0 -3 8 -5 18 -6 10 0 12 -3 5 -6 -7 -2
-13 -11 -13 -19 0 -9 -12 -14 -35 -14 -25 0 -44 -8 -61 -25 -14 -14 -28 -25
-32 -25 -4 0 -8 -18 -8 -41 -1 -22 -9 -48 -17 -56 -18 -19 -64 -26 -73 -12 -3
5 -11 6 -17 2 -7 -4 -24 -6 -39 -4 -24 2 -28 -1 -28 -21 0 -13 5 -29 12 -36 9
-9 9 -12 0 -12 -7 0 -17 11 -22 25 -5 14 -14 25 -20 25 -13 0 -13 -17 0 -25
18 -11 11 -35 -12 -44 -13 -5 -22 -11 -20 -15 10 -26 -46 -64 -66 -44 -15 15
-45 1 -38 -17 3 -9 0 -15 -9 -15 -7 0 -16 -8 -19 -18 -3 -10 -26 -26 -51 -36
-25 -11 -45 -23 -45 -28 0 -5 -4 -7 -9 -4 -5 3 -14 -1 -21 -9 -7 -8 -9 -15 -4
-15 5 0 1 -5 -9 -11 -9 -6 -15 -14 -12 -20 4 -5 -5 -13 -20 -19 -14 -5 -30
-21 -35 -35 -6 -16 -14 -23 -22 -19 -6 4 -8 3 -4 -4 3 -6 -5 -19 -19 -30 -14
-11 -28 -37 -34 -61 -9 -42 -21 -66 -21 -43 0 7 -7 12 -15 12 -8 0 -15 -4 -15
-9 0 -5 -8 -12 -18 -15 -27 -9 -27 -70 0 -63 10 3 16 1 12 -4 -10 -16 -42 -9
-49 10 -3 11 -13 22 -21 25 -8 3 -12 10 -9 16 3 5 -1 10 -10 10 -13 0 -16 6
-11 26 5 18 3 24 -4 19 -8 -5 -9 -20 -5 -42 5 -30 4 -35 -9 -30 -13 5 -15 2
-10 -20 6 -22 4 -25 -9 -20 -21 8 -31 -8 -19 -29 6 -11 11 -13 16 -5 10 16 26
14 26 -4 0 -8 -9 -15 -20 -15 -11 0 -20 -5 -20 -11 0 -5 -5 -7 -10 -4 -6 3
-13 -1 -16 -9 -7 -18 -34 -22 -34 -6 0 6 5 10 11 10 5 0 7 5 4 10 -3 6 -2 10
4 10 6 0 8 7 4 15 -5 14 -7 14 -23 0 -15 -14 -20 -14 -46 -1 -15 9 -29 14 -30
13 -1 -1 -16 -27 -33 -59 -35 -64 -38 -85 -14 -90 12 -2 17 -13 17 -37 1 -20
7 -36 15 -39 9 -3 11 2 6 17 -6 20 -5 21 13 10 16 -10 24 -10 35 -1 10 9 18 9
32 -2 25 -18 13 -50 -16 -41 -18 6 -20 4 -14 -16 4 -13 14 -29 21 -37 13 -13
20 -116 15 -240 -2 -43 -1 -44 27 -37 29 6 29 6 22 -32 -3 -21 -11 -37 -18
-36 -7 2 -12 -2 -12 -8 0 -5 -4 -7 -10 -4 -24 15 0 -59 25 -77 6 -4 2 -8 -9
-8 -14 0 -16 -3 -7 -13 6 -8 9 -23 6 -35 -2 -12 1 -24 7 -28 6 -4 5 -10 -3
-15 -10 -6 -8 -9 9 -9 12 0 22 3 22 8 0 4 10 12 22 17 26 12 40 42 15 32 -21
-8 -37 20 -37 63 0 18 6 33 15 36 12 5 13 9 4 20 -20 24 5 104 32 104 5 0 9
-11 9 -24 0 -14 5 -28 11 -31 6 -4 8 -13 5 -21 -5 -13 -1 -14 82 -14 24 0 32
-4 32 -17 1 -17 1 -17 11 0 7 12 23 17 55 17 28 0 43 -4 39 -10 -4 -6 -10 -8
-14 -6 -4 3 -13 1 -20 -3 -8 -6 4 -11 33 -15 25 -4 50 -5 55 -2 5 4 46 7 90 7
45 0 81 5 81 10 0 5 -10 10 -22 10 -20 1 -21 2 -4 6 11 3 25 -2 31 -10 11 -15
79 -27 90 -15 4 3 19 4 35 2 15 -3 31 0 35 7 5 8 10 8 14 0 8 -13 73 -16 124
-6 33 7 37 5 37 -12 0 -15 -7 -20 -27 -20 -101 1 -233 -8 -233 -15 0 -4 7 -8
16 -8 8 0 25 -5 37 -12 l22 -12 -25 -6 c-14 -3 -26 -14 -28 -25 -7 -45 -11
-48 -37 -31 -15 10 -26 12 -30 6 -10 -16 -25 -2 -26 23 0 15 -2 17 -6 7 -3 -8
-10 -18 -16 -21 -5 -4 -7 -14 -4 -22 4 -10 22 -15 64 -16 32 -1 94 -4 138 -6
58 -2 86 1 103 12 13 8 31 12 40 10 12 -3 10 -5 -5 -6 -13 0 -23 -5 -23 -10 0
-5 8 -8 18 -6 9 2 54 4 100 4 51 1 82 5 82 12 0 5 -8 9 -17 7 -10 -1 -25 2
-32 7 -23 14 -59 13 -54 -2 3 -9 -4 -13 -21 -13 -21 0 -26 5 -26 25 0 20 5 25
25 25 14 0 25 5 25 10 0 6 -7 10 -15 10 -8 0 -12 6 -9 14 3 7 -2 20 -10 28
-12 13 -13 19 -3 32 14 19 57 21 277 17 63 -1 127 2 142 8 15 5 39 7 55 3 15
-4 89 -7 163 -6 444 5 547 4 1015 -12 99 -4 225 -8 280 -10 172 -5 315 -17
315 -25 0 -5 11 -4 25 1 15 6 64 6 119 2 52 -4 105 -5 118 -2 12 4 66 3 118
-1 139 -12 603 0 612 14 6 9 10 9 17 -1 4 -8 11 -13 15 -13 3 1 8 0 11 0 38
-10 84 3 53 14 -26 9 2 18 61 21 50 3 61 1 62 -13 1 -9 2 -23 3 -31 0 -9 9
-14 21 -12 39 5 156 4 161 -1 3 -3 12 -3 19 -1 7 3 16 1 20 -5 9 -16 105 -14
105 1 0 7 7 3 15 -9 12 -18 22 -21 50 -16 26 4 35 2 35 -8 1 -10 3 -9 10 3 12
20 47 13 53 -11 4 -15 5 -15 6 1 1 12 9 16 34 14 17 -2 53 -4 80 -5 43 -1 47
-3 47 -25 0 -14 5 -28 10 -31 6 -4 10 7 10 26 l0 32 106 -6 c58 -4 111 -10
117 -14 6 -4 30 -6 54 -4 24 1 43 -2 43 -7 0 -5 15 -4 35 2 l35 11 0 1380 c0
1173 -2 1387 -15 1425 l-14 45 3 -77 c2 -59 0 -78 -11 -83 -21 -7 -23 -7 -23
9 0 8 -15 30 -33 50 -25 26 -39 34 -55 29 -21 -5 -31 -23 -13 -23 8 0 18 -29
27 -78 1 -7 -7 -17 -19 -22 -12 -5 -16 -9 -9 -9 12 -1 18 -41 5 -41 -3 0 -15
7 -25 17 -15 13 -23 14 -44 4 -23 -10 -26 -9 -21 4 4 8 1 15 -6 15 -21 0 -97
-53 -103 -72 -3 -10 -10 -18 -15 -18 -5 0 -9 -5 -9 -11 0 -6 7 -9 14 -6 10 4
13 1 9 -9 -4 -12 -16 -14 -62 -8 -54 6 -97 25 -85 36 8 9 -19 48 -33 48 -7 0
-13 11 -13 25 0 14 4 25 9 25 9 0 24 60 17 67 -2 2 -15 -2 -29 -8 -15 -7 -33
-8 -44 -4 -18 8 -27 11 -40 14 -21 4 27 19 55 17 17 -1 32 2 32 8 0 5 3 6 7 3
3 -4 12 5 19 19 12 22 11 29 -3 50 l-16 25 -26 -24 c-34 -32 -76 -58 -82 -52
-3 2 -25 -16 -49 -40 -24 -25 -50 -45 -57 -45 -17 0 -16 8 3 27 8 9 13 22 9
31 -3 8 -1 20 4 26 10 12 11 16 11 42 0 14 2 15 17 3 15 -13 16 -11 10 10 -3
14 -1 31 5 38 6 7 8 22 5 32 -3 11 0 22 5 23 6 2 11 13 12 23 1 11 7 30 14 42
7 13 8 24 3 28 -5 3 -20 -13 -32 -35 -13 -23 -37 -50 -55 -60 -35 -22 -54 -26
-36 -8 18 18 15 28 -5 21 -16 -6 -16 -4 1 15 14 17 16 22 5 22 -9 1 -5 9 11
22 22 18 23 20 5 17 -12 -3 -32 -25 -48 -54 -21 -39 -26 -44 -21 -20 4 17 11
40 15 53 6 16 5 22 -5 22 -8 0 -16 -10 -20 -22 -5 -19 -8 -20 -15 -9 -7 10 -5
18 6 26 11 8 14 18 9 31 -8 18 -9 18 -17 -3 -4 -13 -10 -23 -12 -23 -8 0 13
103 24 116 14 17 11 17 -16 3z"/>
<path d="M6594 6826 c-17 -8 -34 -21 -37 -29 -3 -9 -24 -25 -46 -37 -22 -11
-50 -34 -63 -50 -12 -17 -27 -30 -34 -30 -17 0 -74 -52 -74 -67 0 -7 -4 -13
-9 -13 -5 0 -16 -14 -25 -30 -8 -17 -11 -28 -5 -25 12 8 -1 -55 -17 -80 -23
-37 18 -314 62 -412 21 -46 18 -54 -12 -43 -39 15 -44 13 -44 -25 0 -41 5 -43
30 -13 16 20 20 21 35 8 12 -10 15 -23 12 -47 -3 -19 1 -52 9 -75 19 -54 18
-69 -6 -75 -11 -3 -20 -9 -20 -14 0 -5 -4 -9 -10 -9 -14 0 -12 28 2 32 10 4 9
9 -3 20 -19 19 -199 23 -211 4 -5 -8 -8 -7 -8 2 0 10 -13 11 -49 7 -30 -3 -52
-1 -56 5 -4 6 -11 8 -16 4 -18 -11 -79 -10 -69 0 15 15 12 26 -5 26 -8 0 -15
-9 -15 -20 0 -17 -5 -19 -32 -13 -18 3 -34 10 -36 15 -2 4 -10 8 -18 8 -8 0
-14 5 -14 10 0 18 -20 11 -20 -7 -1 -16 -2 -16 -13 -3 -8 10 -28 15 -57 14
-41 -1 -45 -3 -42 -25 1 -18 0 -20 -7 -10 -8 12 -12 12 -25 2 -8 -7 -23 -11
-33 -8 -14 3 -12 6 10 11 28 8 35 20 17 31 -5 3 -10 2 -10 -3 0 -18 -39 -21
-43 -3 -3 9 -5 4 -6 -11 -1 -19 -6 -25 -18 -23 -10 2 -22 4 -26 4 -5 1 -5 6
-2 11 3 6 1 10 -4 10 -6 0 -11 -4 -11 -10 0 -5 -4 -10 -10 -10 -5 0 -10 7 -10
16 0 10 -6 14 -15 10 -8 -3 -15 0 -15 6 0 6 -9 1 -19 -11 -12 -13 -22 -18 -26
-11 -3 5 -20 10 -37 10 -22 0 -29 4 -25 15 4 8 1 17 -5 21 -7 4 -8 3 -4 -4 6
-11 -2 -14 -67 -27 -9 -2 -15 1 -11 6 3 5 -3 10 -13 10 -28 2 -75 8 -110 15
-22 4 -33 2 -33 -5 0 -7 -4 -9 -10 -6 -5 3 -10 -3 -10 -15 0 -12 -4 -19 -10
-15 -5 3 -6 13 -3 22 5 12 2 15 -10 10 -8 -3 -17 -1 -19 5 -3 8 -10 8 -25 -1
-25 -13 -46 -15 -39 -3 3 5 -21 8 -52 7 -31 -1 -65 2 -75 7 -12 6 -23 4 -34
-8 -10 -9 -18 -13 -20 -8 -2 5 -36 9 -77 9 -56 -1 -73 2 -69 12 3 7 1 13 -5
13 -13 0 -24 -29 -15 -43 4 -7 -1 -5 -12 3 -22 18 -27 17 -36 -7 -7 -17 -8
-17 -8 0 -1 9 -5 17 -11 17 -5 0 -7 7 -4 14 7 18 -24 14 -81 -10 -30 -12 -40
-13 -46 -3 -6 10 -11 10 -23 0 -9 -7 -22 -11 -30 -8 -9 4 -17 -1 -19 -11 -3
-12 -5 -11 -6 6 -1 22 -25 30 -36 12 -4 -6 -11 -8 -16 -4 -5 3 -7 10 -4 15 3
5 -1 6 -9 3 -9 -3 -13 -11 -10 -16 4 -6 1 -8 -7 -6 -8 3 -13 12 -11 22 4 20
-5 20 -25 0 -13 -13 -18 -13 -24 -2 -7 10 -11 10 -17 0 -5 -7 -17 -12 -28 -11
-54 5 -74 -1 -75 -23 -1 -22 -1 -22 -9 2 -4 14 -8 19 -9 11 -1 -9 -5 -10 -13
-4 -7 6 -52 10 -100 10 -79 0 -87 -1 -93 -21 -6 -18 -8 -19 -12 -3 -2 9 -5 17
-6 18 -1 0 -41 3 -89 5 -75 4 -88 3 -88 -10 0 -9 -4 -16 -9 -16 -5 0 -18 -3
-28 -7 -10 -3 -15 -3 -11 2 9 9 -9 35 -24 35 -5 0 -6 -9 -3 -20 4 -14 2 -20
-9 -20 -8 0 -17 -8 -19 -17 -4 -15 -6 -15 -12 5 -4 12 -11 22 -16 22 -5 0 -9
5 -9 11 0 5 5 7 10 4 6 -3 10 1 10 10 0 12 -6 14 -27 8 -16 -4 -38 -7 -51 -6
-13 0 -21 -2 -18 -5 11 -10 -47 -32 -83 -31 -20 0 -30 3 -24 6 22 8 -12 33
-44 32 -17 -1 -21 -3 -10 -6 25 -6 21 -23 -5 -23 -13 0 -32 -7 -42 -15 -11 -8
-29 -12 -43 -9 -30 8 -29 -1 3 -31 15 -14 22 -25 15 -25 -6 0 -14 7 -17 15 -4
8 -15 15 -26 15 -19 0 -20 1 -4 25 15 23 15 25 -1 25 -17 1 -16 2 1 15 19 14
19 15 -8 15 -21 0 -27 -4 -22 -15 4 -11 -1 -15 -18 -15 -13 0 -26 -7 -30 -15
-3 -8 -10 -15 -17 -15 -6 0 -8 7 -5 17 4 10 -4 6 -20 -10 -29 -29 -67 -39 -44
-12 10 12 8 16 -11 24 -25 9 -41 8 -71 -4 -13 -5 -18 -2 -18 9 0 9 -7 16 -15
16 -9 0 -12 -6 -9 -15 8 -20 -5 -19 -28 2 -10 9 -21 13 -25 9 -4 -4 -1 -11 7
-16 9 -6 10 -10 3 -10 -6 0 -14 4 -18 10 -3 5 -22 8 -43 7 -30 -2 -38 -6 -40
-24 -2 -13 -10 -23 -17 -23 -16 0 -39 36 -31 48 3 4 -10 8 -29 8 -19 0 -31 -4
-28 -8 2 -5 -18 -6 -46 -2 -53 7 -67 -1 -28 -15 18 -7 14 -10 -28 -16 -72 -9
-85 -15 -60 -25 17 -7 17 -9 3 -9 -10 -1 -18 -5 -18 -11 0 -5 -5 -10 -10 -10
-6 0 -10 6 -9 13 3 24 -1 37 -12 37 -7 0 -9 -10 -6 -25 2 -15 0 -24 -6 -22
-13 4 -17 60 -5 68 15 10 -28 49 -53 48 l-24 -1 25 -8 c17 -5 19 -8 8 -9 -10
-1 -18 -6 -18 -12 0 -5 -5 -7 -12 -3 -7 5 -25 7 -40 6 -17 -1 -28 3 -28 10 0
10 -2 10 -9 0 -5 -9 -20 -12 -40 -9 -17 3 -31 2 -31 -2 0 -4 -7 -8 -15 -8 -8
0 -15 7 -15 16 0 10 -3 12 -8 5 -4 -6 -17 -14 -29 -18 -17 -6 -23 -3 -23 8 0
9 -7 16 -15 16 -8 0 -15 -4 -15 -10 0 -5 -7 -10 -15 -10 -8 0 -15 8 -15 18 0
11 -7 18 -19 18 -11 0 -18 -3 -16 -7 3 -3 -4 -14 -14 -23 -14 -13 -21 -14 -27
-5 -4 7 -3 10 3 6 6 -4 14 0 17 9 3 8 2 12 -3 9 -5 -3 -12 -1 -16 5 -9 14 -25
12 -25 -3 0 -14 -35 -47 -50 -47 -6 0 -10 7 -10 15 0 12 -5 13 -27 4 -20 -7
-28 -6 -35 3 -6 10 -8 10 -8 -2 0 -10 -3 -11 -8 -4 -4 6 -24 13 -44 16 -29 3
-35 1 -26 -9 5 -7 14 -11 18 -8 4 3 10 -4 13 -15 7 -28 -10 -35 -25 -10 -18
28 -34 25 -46 -7 -9 -25 -11 -25 -11 -6 -1 12 3 25 9 28 17 11 11 21 -15 23
-25 2 -34 -11 -15 -23 6 -4 5 -14 -3 -28 -18 -32 -37 -50 -45 -42 -4 3 1 11
11 16 25 14 23 69 -2 69 -11 0 -22 -6 -24 -12 -4 -9 -6 -8 -6 2 -1 11 -12 15
-43 14 -24 -1 -47 4 -51 10 -6 8 -10 8 -14 -1 -2 -7 -9 -13 -14 -13 -6 0 -7 5
-3 12 5 8 2 9 -12 3 -10 -4 -36 -10 -56 -13 -26 -3 -35 -8 -31 -18 3 -8 1 -14
-5 -14 -6 0 -18 -3 -28 -7 -14 -5 -16 -2 -12 21 3 14 1 29 -3 32 -5 3 -9 -3
-9 -12 0 -16 -1 -16 -14 1 -13 18 -14 18 -25 -3 -13 -25 -14 -35 -2 -27 5 3
12 1 16 -5 10 -16 -21 -12 -35 5 -10 12 -10 15 1 16 8 1 -4 5 -26 9 l-40 7 39
2 c37 1 39 2 20 16 -22 17 -38 20 -29 5 4 -6 -6 -10 -24 -10 -19 0 -31 -6 -35
-17 -3 -10 -4 -6 -2 8 2 16 -2 26 -11 26 -7 0 -13 -7 -13 -14 0 -8 -4 -12 -9
-9 -5 4 -14 -6 -19 -21 -6 -17 -11 -21 -11 -11 -1 17 -29 38 -50 38 -5 0 -17
-8 -26 -17 -16 -16 -18 -16 -27 0 -5 10 -14 15 -19 12 -5 -4 -6 -11 -3 -17 4
-6 1 -9 -7 -6 -8 3 -15 10 -15 16 -3 23 -4 23 -20 8 -8 -9 -20 -13 -26 -10 -6
4 -5 10 3 15 19 12 8 11 -29 -2 -18 -6 -29 -15 -26 -20 3 -5 -2 -9 -11 -9 -9
0 -13 5 -10 10 4 6 -17 10 -55 10 -35 0 -59 4 -55 9 3 5 1 12 -5 16 -5 3 -10
-1 -10 -9 0 -23 -17 -20 -25 4 -3 11 -11 20 -16 20 -6 0 -7 -4 -4 -10 3 -5 2
-10 -4 -10 -5 0 -12 8 -15 18 -2 9 -2 -1 0 -23 4 -32 3 -36 -6 -22 -12 19 -40
23 -40 6 0 -6 -8 -8 -19 -4 -12 3 -21 1 -23 -7 -2 -9 -14 -11 -38 -7 l-35 6
33 2 c18 0 31 5 27 10 -3 5 0 11 7 14 7 2 0 2 -17 0 -100 -15 -125 -14 -125 4
0 14 -2 15 -9 4 -7 -10 -13 -11 -31 -1 -15 8 -20 8 -16 1 4 -6 2 -11 -4 -11
-6 0 -18 -7 -27 -15 -8 -8 -19 -13 -24 -9 -5 3 -2 12 6 20 19 19 19 21 0 21
-8 0 -12 -4 -9 -9 4 -7 -38 -12 -83 -11 -7 1 -13 -6 -13 -15 0 -10 -8 -7 -25
12 -23 24 -30 25 -26 3 1 -4 -8 -2 -19 5 -11 7 -20 17 -21 23 0 5 -4 0 -9 -12
-5 -13 -16 -23 -25 -23 -8 0 -15 -5 -15 -12 0 -6 -2 -9 -5 -6 -8 8 6 39 15 33
5 -3 11 -1 14 4 8 12 -65 11 -81 -1 -17 -14 -18 -448 0 -448 8 0 6 -4 -3 -10
-13 -8 -12 -10 3 -10 9 0 17 7 17 16 0 8 5 12 10 9 6 -4 8 -11 5 -16 -4 -5 -2
-9 4 -9 5 0 12 6 15 13 3 6 5 3 3 -8 -2 -15 -10 -20 -35 -20 -24 1 -32 -3 -32
-17 0 -13 8 -18 25 -18 14 0 25 -5 25 -10 0 -6 -11 -8 -25 -4 l-25 6 0 -76 c0
-70 2 -77 22 -85 l23 -8 -23 -7 c-21 -7 -22 -11 -22 -146 0 -124 2 -139 18
-143 16 -4 16 -5 -1 -6 -15 -1 -18 -8 -15 -38 3 -33 7 -39 33 -44 l30 -7 -35
-1 c-24 -1 -31 -4 -21 -10 9 -6 10 -11 2 -15 -6 -4 -11 -20 -11 -35 0 -24 4
-28 24 -26 14 2 27 -3 30 -11 3 -8 0 -14 -7 -15 -7 0 -3 -4 8 -9 18 -8 18 -9
-5 -9 -19 -1 -22 -3 -11 -10 12 -8 9 -11 -12 -16 -17 -5 -27 -14 -27 -26 0
-15 7 -17 38 -15 20 2 51 9 68 16 24 10 40 11 65 3 l34 -10 -43 -8 c-42 -7
-52 -18 -31 -31 6 -3 16 -1 22 5 17 17 87 14 93 -4 5 -11 19 -13 67 -9 34 2
72 7 84 9 12 3 24 1 27 -4 3 -4 37 -6 74 -3 41 3 77 0 88 -6 18 -11 18 -11 -3
-12 -12 0 -24 -4 -27 -9 -3 -5 -67 -8 -142 -7 -107 1 -137 -2 -143 -13 -6 -10
-16 -12 -37 -6 -21 6 -24 9 -11 12 9 3 17 8 17 13 0 4 -8 9 -17 12 -27 6 -84
-6 -81 -17 4 -12 -40 -22 -99 -24 -37 -1 -43 -4 -43 -22 0 -15 4 -19 16 -15
14 5 15 4 4 -9 -13 -16 -16 -15 53 -19 15 -1 27 1 27 5 0 4 12 5 28 2 71 -13
133 -14 147 -3 8 6 18 9 24 6 5 -3 11 -1 13 6 3 8 12 9 37 0 26 -9 33 -9 38 3
6 17 39 20 48 5 4 -6 11 -8 16 -5 5 4 9 1 9 -4 0 -6 -10 -11 -22 -11 -13 0
-29 -4 -37 -9 -11 -7 -10 -11 5 -20 15 -10 10 -10 -26 -4 -72 13 -183 10 -188
-4 -2 -8 -19 -13 -40 -12 -32 1 -34 2 -12 8 l25 7 -25 8 c-22 6 -75 9 -124 7
-10 -1 -14 -10 -12 -28 2 -27 3 -28 61 -27 33 1 52 -1 42 -3 -9 -3 -15 -8 -12
-12 2 -5 -18 -6 -45 -3 l-50 5 0 -42 c0 -34 3 -41 20 -41 12 0 17 -5 14 -14
-6 -16 38 -28 111 -28 l50 0 -48 -9 c-31 -6 -54 -6 -67 1 -10 5 -28 10 -39 10
-12 0 -21 5 -21 10 0 6 -4 10 -10 10 -5 0 -10 -18 -10 -40 0 -37 2 -40 28 -40
21 0 24 -2 12 -10 -11 -7 -4 -10 25 -10 22 0 47 5 55 10 12 8 11 10 -7 10 -13
0 -23 5 -23 10 0 6 13 10 29 10 17 0 33 4 36 10 3 6 17 10 31 10 14 0 22 -4
19 -10 -9 -15 42 -12 110 5 36 10 75 13 98 9 41 -6 164 12 173 27 3 5 14 9 25
9 11 0 22 7 25 15 4 8 14 15 23 16 10 0 7 4 -9 11 -24 10 -24 10 -5 18 11 5
34 8 50 8 l30 0 -30 -8 -30 -8 34 -1 c19 0 31 -4 28 -8 -15 -14 14 -32 38 -23
14 6 27 6 30 0 6 -10 -79 -25 -94 -16 -5 3 -22 1 -37 -6 l-27 -13 24 -6 c18
-5 14 -7 -18 -8 -24 -1 -43 -6 -43 -12 0 -7 -16 -8 -45 -3 -28 4 -50 2 -59 -5
-7 -6 -35 -14 -62 -17 -36 -4 -45 -3 -34 5 12 9 11 11 -8 11 -13 0 -32 -10
-41 -21 -16 -20 -22 -21 -92 -13 -81 10 -119 8 -119 -7 0 -5 11 -9 24 -9 13 0
32 -3 42 -7 16 -6 16 -7 -2 -13 -10 -4 -29 -3 -41 3 -13 6 -45 6 -80 2 -52 -8
-55 -9 -28 -16 28 -6 27 -7 -12 -8 -41 -1 -57 -14 -31 -24 10 -4 10 -6 1 -6
-7 -1 -13 -10 -13 -21 0 -17 7 -20 48 -22 36 -1 39 -2 15 -5 -19 -3 -33 -10
-33 -18 0 -7 -8 -16 -17 -18 -10 -3 0 -6 22 -7 22 -1 34 -4 27 -7 -6 -2 -10
-9 -6 -14 3 -5 -6 -9 -20 -9 -14 0 -28 -5 -32 -11 -5 -9 7 -10 47 -4 115 17
189 22 183 13 -3 -5 -13 -8 -22 -8 -9 0 -35 -7 -57 -14 -22 -8 -60 -15 -85
-17 -69 -4 -70 -5 -70 -71 l0 -59 38 6 c33 6 35 5 19 -8 -10 -8 -27 -13 -37
-10 -18 5 -20 0 -20 -37 l0 -43 47 6 c27 3 57 9 68 12 20 7 20 6 1 -9 -19 -15
-18 -16 13 -16 18 0 30 -4 27 -9 -4 -5 3 -7 14 -4 13 3 20 0 20 -8 0 -12 2
-12 9 0 5 8 26 14 50 14 23 0 41 3 41 7 0 4 20 3 45 -3 25 -6 45 -14 45 -18 0
-5 7 -6 16 -2 13 5 13 7 2 14 -8 5 12 9 52 9 62 1 131 11 176 25 14 4 21 2 21
-8 0 -9 -7 -12 -19 -9 -13 3 -18 -1 -18 -16 0 -18 -9 -20 -107 -26 -60 -4
-142 -5 -183 -2 -63 4 -176 -8 -130 -14 36 -5 -42 -18 -112 -19 l-78 -1 0 -55
0 -55 43 0 c41 -1 42 -1 17 -15 -14 -8 -33 -14 -42 -15 -16 0 -18 -12 -18
-100 0 -71 3 -100 12 -100 9 0 9 -3 0 -12 -7 -7 -12 -36 -12 -66 0 -51 1 -53
23 -45 30 10 87 7 100 -6 8 -8 4 -11 -14 -11 -13 0 -35 -3 -48 -7 -18 -5 -22
-3 -16 7 6 10 4 12 -9 7 -10 -4 -22 -7 -27 -7 -5 0 -9 -49 -9 -109 l0 -109 38
-10 c31 -8 33 -10 12 -12 -14 -1 -31 -2 -37 -1 -10 2 -13 -50 -13 -227 l0
-229 39 7 c31 5 38 4 34 -7 -3 -7 -10 -13 -17 -12 -6 1 -21 1 -33 0 l-23 -1 0
-1215 0 -1215 7389 0 7390 0 0 79 0 79 -54 -4 c-45 -3 -55 -1 -55 12 0 13 9
15 55 10 l55 -5 0 94 c0 60 -4 95 -11 95 -5 0 -7 5 -4 11 4 5 -1 19 -10 29
-16 18 -16 18 5 13 19 -5 21 -2 18 27 -2 19 -9 36 -17 38 -10 3 -12 0 -8 -12
5 -13 2 -16 -18 -13 -13 1 -27 6 -31 9 -3 4 -12 4 -20 1 -8 -3 -14 0 -14 7 0
7 -8 10 -20 7 -11 -3 -23 -1 -26 5 -4 6 -10 5 -15 -3 -10 -17 -23 -5 -16 15 5
13 18 15 69 10 35 -3 75 -7 91 -9 l27 -5 0 200 c0 181 -2 199 -17 203 -17 4
-17 5 0 6 9 0 17 7 17 15 0 17 -15 22 -87 31 -30 4 -54 12 -57 21 -4 11 1 13
22 8 15 -4 29 -7 32 -6 3 0 24 0 48 1 l43 1 -2 54 -2 55 -61 5 c-138 12 -196
12 -196 0 0 -10 -33 -13 -127 -13 -71 0 -146 -3 -167 -6 -22 -3 -37 -2 -33 1
3 4 0 13 -8 21 -8 8 -15 21 -15 28 0 12 15 14 73 10 218 -15 251 -15 258 -3 9
14 108 11 127 -4 7 -6 44 -13 82 -16 l70 -5 0 60 c0 60 0 60 -37 76 l-38 15
38 1 37 1 0 63 c0 54 -3 64 -22 77 -13 8 -27 13 -31 12 -5 -2 -7 3 -5 10 3 7
16 14 31 16 l26 3 0 225 0 225 -22 -7 -22 -6 23 19 c21 19 22 28 22 162 0 113
-3 143 -14 147 -17 6 -45 12 -65 13 -11 1 -11 4 0 17 9 11 22 14 46 9 l34 -6
-2 46 c-2 36 -8 50 -28 65 -25 19 -25 19 -4 20 12 0 24 -6 26 -12 3 -7 6 10 6
39 1 41 -3 52 -16 56 -15 4 -15 5 -2 6 10 1 16 11 17 28 0 23 -7 31 -39 47
-50 23 -46 32 4 11 l37 -15 0 45 c0 45 0 45 -36 45 -19 0 -33 4 -30 8 3 5 19
7 35 4 l30 -4 0 185 1 185 -58 7 c-59 8 -114 13 -144 14 -17 1 -17 2 0 19 10
11 20 14 24 8 5 -7 18 -6 41 2 23 8 42 9 58 3 23 -9 23 -9 4 -17 -19 -8 -19
-8 5 -15 37 -10 70 -10 70 0 0 5 -10 11 -22 13 -12 2 -23 9 -26 17 -3 10 2 13
22 9 20 -4 26 -1 26 13 0 11 -3 18 -7 18 -5 -1 -33 -1 -63 0 l-55 1 30 16 c18
9 43 14 63 10 32 -5 32 -4 32 35 l0 39 -92 0 c-66 0 -89 -3 -78 -10 8 -6 40
-10 70 -9 82 2 88 0 56 -16 -25 -13 -42 -13 -155 1 -69 9 -161 18 -204 21 -42
3 -80 10 -83 14 -3 5 6 9 20 9 35 0 44 20 9 21 -15 1 -35 2 -43 3 -8 0 -50 -4
-93 -11 -96 -14 -139 -4 -52 13 57 11 53 12 -100 14 -88 2 -142 5 -120 7 40 4
75 23 42 23 -21 0 -22 16 -2 24 43 16 -6 42 -72 37 -26 -2 -43 1 -43 8 0 12
54 14 112 5 24 -4 35 -11 31 -18 -4 -6 3 -3 14 7 14 13 32 17 55 14 l33 -4
-36 -1 c-33 -2 -37 -5 -41 -32 -3 -21 -1 -27 6 -20 5 5 20 10 32 10 12 0 27 7
34 15 13 16 61 18 115 6 l30 -7 -37 -7 c-54 -11 -54 -22 0 -21 63 0 80 -5 87
-26 7 -23 35 -30 55 -14 20 17 110 7 103 -11 -5 -15 74 -27 142 -22 22 2 58
-1 80 -6 22 -4 59 -6 83 -2 40 6 42 8 42 39 0 31 -3 34 -40 40 -22 3 -48 15
-57 26 -10 11 -23 20 -30 20 -7 0 -13 5 -13 10 0 12 32 13 46 1 5 -4 28 -13
52 -19 l42 -10 -2 29 c-1 16 -8 29 -15 29 -7 0 -13 5 -13 10 0 6 7 10 15 10
12 0 15 13 15 55 l0 55 -32 -8 c-18 -4 -55 -7 -83 -7 -46 1 -54 5 -99 48 -27
26 -44 47 -37 47 7 0 9 4 6 10 -3 5 -1 10 4 10 6 0 11 -4 11 -10 0 -5 17 -10
38 -10 21 0 42 -4 48 -9 8 -8 125 -51 139 -51 3 0 5 20 5 45 0 35 -4 47 -17
51 -10 3 -30 12 -45 20 -18 10 -73 16 -165 20 -76 3 -159 9 -184 14 -26 5 -60
6 -75 1 -37 -10 -66 -1 -55 17 5 8 11 13 15 13 3 -1 25 -1 49 0 l42 1 -40 9
c-79 19 -53 26 92 23 90 -2 136 0 118 5 -28 8 -29 12 -6 15 19 2 23 16 5 16
-79 0 -233 14 -254 22 -8 4 -22 9 -30 11 -8 3 4 6 27 6 23 1 53 -4 67 -10 14
-7 37 -8 53 -4 26 6 27 8 10 20 -11 8 -28 10 -44 6 -30 -8 -93 -2 -93 9 0 8
57 19 64 13 10 -11 142 -10 149 1 6 8 10 8 14 -1 3 -8 24 -13 56 -13 29 0 69
-3 90 -6 l37 -7 -25 -23 c-14 -13 -33 -21 -43 -18 -20 6 13 -11 43 -21 13 -5
16 -9 7 -12 -7 -3 -20 -2 -30 3 -35 15 -48 13 -49 -6 -2 -17 5 -20 39 -20 55
0 168 -21 168 -32 0 -4 -11 -8 -25 -8 -32 0 -23 -26 11 -33 24 -4 24 -4 24 84
0 60 -4 89 -12 92 -10 4 -10 6 0 6 19 1 17 111 -3 111 -8 0 -15 -4 -15 -10 0
-5 -16 -10 -35 -10 -34 0 -47 13 -22 23 11 5 3 7 -58 12 -86 8 -83 7 -40 14
48 8 143 6 168 -4 12 -5 17 -2 17 8 0 8 -6 18 -12 20 -10 4 -10 6 0 6 6 1 12
6 12 11 0 6 -27 10 -60 10 -36 0 -60 -4 -60 -11 0 -15 -61 -8 -82 10 -10 8
-18 9 -18 4 0 -19 -31 -24 -46 -8 -14 13 -14 15 0 15 22 0 20 17 -4 30 -11 6
-20 7 -20 3 0 -4 -5 -2 -11 4 -9 9 -8 16 4 27 17 18 42 22 32 6 -4 -6 9 -10
32 -10 36 -1 37 -1 18 -16 -18 -14 -13 -15 68 -12 48 2 87 -1 87 -5 0 -4 12
-6 28 -4 30 4 43 34 20 48 -10 6 -10 9 0 9 6 0 12 5 12 10 0 6 -9 10 -21 10
-12 0 -17 4 -14 11 4 6 13 8 21 5 8 -3 14 1 14 9 0 9 -10 15 -27 16 -38 1 -63
6 -71 14 -4 4 11 6 33 5 65 -4 65 -4 65 51 0 46 -2 51 -20 46 -11 -3 -18 -1
-14 4 3 5 12 9 20 9 10 0 14 14 14 55 0 53 -1 55 -27 56 -16 1 -34 1 -42 0
-11 -2 -11 0 0 11 7 8 25 12 41 10 l28 -4 0 60 c0 58 -1 61 -27 65 l-28 4 28
2 27 1 0 414 0 414 -39 -5 c-33 -5 -39 -2 -44 16 -3 11 -11 21 -19 20 -10 0
-10 -2 0 -6 6 -2 12 -14 12 -25 0 -16 -5 -19 -23 -14 -12 3 -69 6 -125 7 -56
1 -105 5 -108 11 -3 5 -16 2 -30 -7 -14 -9 -29 -13 -35 -9 -6 4 -15 1 -20 -7
-6 -11 -11 -10 -26 3 -13 12 -32 15 -70 13 -29 -2 -55 0 -57 4 -3 4 -31 6 -63
3 -32 -2 -71 -5 -88 -5 -16 -1 -34 -8 -38 -14 -12 -19 -102 -17 -117 3 -10 12
-23 13 -54 8 -23 -4 -52 -7 -66 -6 -17 1 -28 -5 -35 -20 -14 -30 -33 -34 -28
-6 4 22 1 24 -54 28 -124 8 -234 4 -243 -10 -5 -8 -13 -9 -21 -4 -23 15 -69
13 -69 -2 0 -20 -98 -23 -110 -4 -3 4 -17 6 -32 5 -16 -2 -28 0 -28 3 0 4 -29
8 -64 8 -34 1 -78 7 -97 13 -23 7 -51 8 -82 2 -25 -4 -48 -6 -51 -4 -3 3 -1
16 5 30 12 31 11 36 -1 28 -5 -3 -10 3 -10 14 0 18 -3 19 -19 9 -15 -9 -23 -7
-42 11 -13 12 -29 19 -35 17 -6 -2 -15 -1 -20 4 -5 5 -26 1 -49 -9 -32 -14
-45 -28 -60 -65 -10 -25 -23 -46 -27 -46 -4 0 -8 -7 -8 -15 0 -19 -75 -18 -91
2 -15 17 -29 17 -29 -1 0 -8 -7 -17 -16 -20 -23 -9 -36 -7 -29 4 4 6 -10 10
-34 10 -23 0 -41 5 -41 11 0 6 9 8 20 4 24 -8 27 10 4 19 -9 3 -31 -3 -50 -15
l-34 -20 -41 24 c-47 28 -43 35 21 34 33 0 46 4 48 16 2 10 -4 16 -15 16 -85
1 -123 5 -123 12 0 18 -27 8 -37 -13 l-11 -23 -10 25 c-8 19 -11 20 -11 7 -1
-11 -5 -15 -13 -11 -6 4 -8 3 -5 -3 3 -5 -1 -19 -9 -31 -17 -25 -57 -31 -48
-7 4 9 0 15 -10 15 -8 0 -13 -6 -11 -12 4 -10 -22 -14 -104 -15 -60 -1 -121
-4 -135 -7 -19 -3 -26 0 -26 11 0 12 -3 13 -13 4 -8 -6 -17 -8 -21 -4 -4 4 -9
-3 -13 -15 -6 -23 -27 -30 -38 -12 -4 6 -10 8 -15 5 -5 -3 -12 0 -16 6 -5 8
-3 9 5 5 8 -5 14 0 18 13 3 12 13 21 24 21 13 0 19 7 19 21 0 11 -5 17 -10 14
-5 -3 -10 -1 -10 4 0 6 -4 11 -10 11 -5 0 -10 -10 -10 -21 0 -17 -3 -19 -14
-10 -10 9 -16 8 -26 -4 -10 -12 -10 -15 4 -15 20 0 20 -7 2 -26 -8 -8 -21 -11
-29 -8 -8 3 -18 1 -22 -5 -4 -7 -13 -8 -23 -3 -9 5 -48 9 -87 11 -83 2 -105 8
-105 27 0 8 -9 14 -20 14 -11 0 -20 -4 -20 -10 0 -5 -7 -10 -15 -10 -8 0 -14
5 -12 11 1 7 -23 12 -68 13 -74 2 -138 -9 -168 -29 -14 -10 -25 -8 -58 8 -37
18 -41 18 -58 3 -10 -9 -23 -16 -29 -16 -7 0 -12 -9 -12 -20 0 -11 -5 -20 -11
-20 -5 0 -7 5 -4 10 9 15 -15 42 -31 36 -8 -3 -11 0 -7 10 3 7 0 14 -6 14 -6
0 -11 -6 -11 -12 0 -24 -170 -28 -170 -4 0 6 -7 3 -15 -8 -10 -13 -22 -17 -40
-14 -21 4 -28 1 -35 -18 -11 -29 -45 -33 -37 -5 8 32 -74 38 -95 7 -5 -7 -8
-5 -8 5 0 13 -15 16 -89 17 -49 1 -103 -3 -122 -8 -22 -7 -37 -6 -46 1 -9 9
-13 8 -13 0 0 -9 -5 -9 -20 -1 -13 7 -20 22 -21 43 l-1 32 -12 -39 c-7 -22
-15 -35 -19 -29 -4 6 -27 8 -57 5 -44 -4 -53 -2 -66 17 -12 17 -19 19 -34 11
-27 -14 -72 -12 -96 5 -12 8 -24 12 -27 8 -3 -3 -17 -3 -31 1 -18 4 -24 11
-20 24 4 9 -5 -1 -19 -23 -21 -33 -31 -40 -61 -42 -27 -1 -36 2 -36 13 0 14
-2 14 -15 0 -8 -8 -15 -19 -15 -25 0 -6 -5 -11 -11 -11 -5 0 -7 5 -4 10 10 16
-32 12 -49 -5 -17 -17 -36 -20 -36 -5 0 6 -7 10 -15 10 -8 0 -15 -6 -15 -12 0
-9 -2 -10 -8 -2 -4 6 -19 10 -34 8 -15 -1 -29 3 -32 11 -3 8 -13 11 -27 8 -12
-4 -20 -2 -17 3 3 5 2 20 -3 33 -7 18 -13 21 -21 13 -8 -8 -8 -15 0 -25 7 -8
8 -24 3 -43 -7 -28 -8 -28 -15 -7 -4 13 -4 28 -1 35 4 7 -1 4 -9 -6 -19 -24
-21 -50 -3 -40 10 6 10 4 0 -7 -8 -8 -13 -43 -13 -95 l0 -83 53 -14 c28 -8 77
-21 107 -27 65 -15 153 -38 175 -46 12 -5 15 3 16 42 0 37 3 44 9 29 5 -11 9
-37 9 -58 1 -23 5 -36 11 -32 13 8 110 -23 110 -35 0 -5 -4 -12 -10 -15 -5 -3
-10 -21 -10 -40 0 -38 -26 -73 -43 -56 -7 7 -7 19 1 36 15 32 8 45 -22 43 -18
-2 -22 -7 -19 -23 4 -18 2 -17 -16 5 -14 17 -21 20 -21 10 -1 -9 -5 -6 -10 8
-5 12 -16 22 -25 22 -36 0 -95 -50 -95 -80 0 -22 26 -44 41 -35 8 6 8 2 0 -14
-7 -13 -8 -21 -2 -21 6 0 8 -7 4 -16 -6 -16 -7 -16 -18 0 -18 24 -26 19 -15
-10 6 -15 6 -23 1 -19 -6 3 -14 -2 -19 -10 -8 -15 -42 -12 -42 5 0 4 -17 7
-39 7 -34 0 -38 -2 -33 -20 3 -14 1 -18 -6 -13 -8 5 -12 -3 -12 -23 0 -16 6
-32 13 -34 8 -4 9 -6 0 -6 -6 -1 -19 7 -29 16 -15 16 -17 16 -30 -2 -8 -10
-14 -13 -14 -7 0 7 -8 12 -19 12 -13 0 -20 -9 -23 -30 -3 -17 -1 -33 4 -36 4
-3 8 -11 8 -17 0 -9 -2 -9 -8 -1 -10 15 -74 13 -68 -3 9 -22 -24 -22 -36 0 -6
12 -11 23 -10 25 6 8 0 42 -7 38 -4 -3 -14 12 -21 34 -9 28 -17 37 -29 33 -13
-4 -13 -3 -2 5 8 6 11 17 8 26 -4 9 -2 16 3 16 6 0 10 5 10 10 0 6 -8 10 -17
10 -14 0 -15 2 -4 9 20 13 -17 51 -49 51 l-25 0 25 13 c14 7 28 9 31 5 3 -5
13 -6 22 -2 12 4 17 1 17 -10 0 -9 5 -16 10 -16 7 0 7 -6 1 -18 -13 -25 -1
-41 24 -31 11 4 14 8 6 8 -9 1 -12 11 -9 36 2 19 0 35 -4 35 -4 0 -8 7 -8 15
0 17 -26 31 -55 29 -11 0 -30 -2 -42 -3 -13 0 -23 -6 -23 -12 0 -6 7 -8 16 -5
10 4 14 1 11 -6 -2 -7 -12 -12 -21 -10 -14 3 -16 -1 -11 -17 8 -26 -15 -39
-31 -17 -9 13 -14 14 -20 5 -4 -7 -2 -15 4 -17 7 -2 12 -15 12 -29 l0 -26 -21
24 c-17 19 -22 21 -29 9 -13 -20 -12 -37 2 -46 7 -5 4 -10 -11 -16 -27 -10
-44 -1 -37 18 7 18 -9 27 -33 19 -14 -4 -18 -13 -15 -31 3 -15 -3 -32 -16 -46
-11 -12 -20 -25 -20 -30 0 -4 -24 -8 -54 -8 -59 0 -62 3 -76 73 -6 29 -4 40 6
44 8 3 12 8 10 12 -3 4 -1 12 3 19 5 8 14 8 35 -3 25 -13 27 -13 22 1 -3 9 -6
20 -6 25 0 4 -7 6 -15 2 -9 -3 -15 -2 -14 3 5 28 -3 44 -21 44 -11 0 -20 -6
-21 -12 0 -7 -4 -4 -9 7 -5 11 -9 14 -9 8 -1 -7 -10 -13 -21 -13 -17 0 -18 -3
-9 -27 5 -14 6 -29 2 -32 -5 -3 -8 -25 -8 -49 1 -37 -1 -41 -17 -36 -13 4 -18
0 -18 -12 0 -13 -4 -11 -20 9 -11 14 -17 32 -14 40 8 22 -65 97 -93 97 -13 0
-23 -5 -23 -11 0 -6 -9 -9 -20 -6 -10 3 -21 0 -24 -7 -2 -6 -5 -1 -5 11 -2 45
-31 78 -31 34 0 -31 -25 -31 -44 0 -14 24 -24 29 -57 29 -57 0 -55 1 -58 -43
0 -10 -6 -15 -12 -12 -6 4 -8 14 -5 22 3 8 2 11 -3 8 -6 -3 -8 -22 -5 -43 4
-33 3 -35 -6 -12 -16 36 -30 7 -18 -37 5 -19 7 -48 5 -66 -3 -29 -4 -28 -6 8
-1 36 -19 84 -22 60 -1 -5 -3 -23 -5 -40 -1 -16 -6 -53 -10 -81 -4 -34 -2 -54
5 -58 16 -10 14 -26 -4 -26 -10 0 -15 -10 -15 -34 0 -18 -7 -39 -15 -46 -20
-17 -19 -61 6 -159 17 -68 19 -90 10 -125 -9 -35 -5 -66 19 -191 17 -82 30
-161 30 -176 0 -15 4 -38 9 -51 4 -13 11 -45 14 -73 3 -27 3 -39 -1 -25 -9 28
-65 70 -95 70 -14 0 -17 -3 -9 -12 10 -13 10 -46 0 -63 -3 -6 -4 -20 -3 -32 1
-13 -2 -23 -6 -23 -5 0 -6 -7 -3 -15 4 -8 1 -15 -6 -15 -9 0 -11 -10 -6 -32 4
-24 3 -29 -4 -18 -5 8 -10 13 -10 10 -5 -44 -14 -86 -19 -90 -12 -8 -9 -74 3
-82 18 -11 11 -87 -11 -116 -11 -15 -37 -36 -58 -47 -22 -11 -49 -30 -62 -41
-22 -20 -65 -26 -89 -12 -5 3 -35 6 -68 7 l-59 2 6 -30 c5 -21 3 -31 -6 -32
-6 0 -46 -2 -87 -4 -41 -2 -86 -7 -100 -13 -14 -5 -36 -8 -49 -6 -13 3 -30 -1
-38 -8 -10 -8 -17 -8 -21 -1 -12 17 -52 23 -52 7 0 -10 -6 -11 -26 -4 -14 6
-30 8 -35 5 -12 -8 -69 23 -69 38 0 9 -2 9 -8 0 -6 -9 -16 -7 -40 7 -18 11
-39 20 -47 20 -8 0 -15 5 -15 10 0 6 -9 10 -21 10 -11 0 -63 20 -115 45 -51
25 -98 45 -104 45 -5 0 -10 4 -10 9 0 5 -17 12 -37 16 -73 13 -115 47 -115 90
0 20 -8 29 -33 39 -41 17 -48 46 -24 93 11 21 25 55 31 77 7 21 18 40 25 43
23 9 14 42 -17 58 -37 19 -46 19 -30 0 7 -9 10 -19 6 -22 -4 -4 -11 -1 -15 6
-7 11 -11 9 -20 -5 -9 -17 -10 -17 -11 -2 0 32 -45 51 -105 46 -31 -3 -61 -11
-68 -18 -10 -10 -7 -11 13 -5 58 17 85 16 110 -5 18 -16 20 -19 5 -12 -21 10
-91 9 -102 -1 -3 -4 -14 -2 -24 4 -49 26 -87 -41 -70 -122 6 -28 9 -54 6 -57
-3 -3 0 -10 5 -17 5 -6 11 -27 12 -45 3 -31 0 -35 -27 -40 -19 -4 -53 2 -95
18 -102 37 -103 37 -61 -7 21 -22 47 -41 57 -41 16 0 17 -2 4 -10 -10 -6 -11
-10 -2 -10 6 0 12 -5 12 -11 0 -5 -4 -7 -10 -4 -5 3 -10 0 -10 -7 0 -9 -11
-14 -27 -13 -16 0 -30 -3 -33 -7 -3 -4 -21 -10 -40 -13 -19 -3 -40 -11 -47
-17 -8 -6 -16 -8 -20 -4 -3 3 -1 6 5 6 7 0 12 4 12 8 0 5 -26 5 -57 0 -32 -5
-68 -6 -81 -3 -21 5 -23 3 -20 -22 3 -25 8 -29 48 -36 83 -14 195 -23 198 -17
1 4 13 5 26 3 13 -3 27 0 30 6 4 5 13 8 21 4 9 -3 26 2 40 11 14 9 25 13 25 9
0 -5 4 -2 9 6 7 11 13 12 23 4 20 -15 54 -22 69 -12 7 4 19 3 26 -3 7 -5 25
-7 39 -4 18 5 30 3 36 -6 8 -11 10 -11 15 0 4 10 8 10 21 0 13 -11 14 -11 7 1
-6 11 -4 13 8 8 9 -3 55 -14 102 -22 47 -9 100 -22 118 -30 29 -12 92 -26 125
-28 6 0 12 -4 12 -9 0 -5 4 -7 9 -4 12 8 166 -51 181 -70 10 -11 9 -14 -9 -14
-11 0 -21 -4 -21 -9 0 -12 48 -23 61 -15 12 7 89 -25 89 -38 0 -4 -2 -8 -4 -8
-2 0 -31 -7 -63 -14 -32 -8 -84 -17 -116 -21 -32 -3 -79 -9 -105 -14 -26 -5
-54 -9 -62 -9 -8 0 -60 -3 -115 -6 -67 -3 -104 -1 -113 6 -18 16 -55 18 -64 4
-5 -8 -8 -7 -8 2 0 8 -18 12 -54 12 -30 0 -67 5 -83 11 -36 15 -63 18 -63 8 0
-10 -49 10 -70 28 -12 11 -8 13 28 13 27 0 42 -5 42 -12 0 -10 2 -10 8 -1 4 6
27 12 52 13 86 3 120 6 126 13 4 4 18 7 31 7 13 0 23 6 23 15 0 19 -65 31 -96
17 -18 -9 -23 -9 -21 1 1 6 -10 13 -25 15 -16 2 -28 8 -28 13 0 5 -7 9 -15 9
-9 0 -12 -6 -9 -17 4 -13 3 -14 -3 -5 -9 11 -50 17 -203 27 -96 6 -170 18
-170 25 0 4 -17 4 -37 0 -20 -5 -41 -6 -45 -4 -5 3 -15 0 -23 -6 -12 -10 -15
-10 -15 1 0 11 -2 11 -8 2 -6 -10 -17 -10 -43 -2 -48 15 -90 17 -117 8 -13 -5
-21 -5 -18 -1 2 4 -4 8 -14 8 -10 0 -16 -4 -13 -9 3 -5 -1 -7 -8 -5 -8 1 -14
-1 -14 -5 0 -4 -15 -15 -32 -24 -44 -21 -95 -11 -113 22 -7 13 -18 22 -23 18
-6 -3 -8 -2 -4 3 3 5 1 32 -4 59 -10 51 -12 88 -24 357 l-8 156 28 27 27 28
-29 -8 c-39 -9 -52 -22 -46 -48 4 -22 4 -22 -12 -2 -11 14 -14 31 -9 62 6 42
5 43 -20 43 -18 0 -25 4 -20 11 3 6 0 16 -7 21 -10 7 -9 8 6 3 50 -17 54 -15
59 28 7 62 5 77 -15 77 -10 0 -20 4 -24 9 -3 6 5 8 19 5 19 -3 26 1 31 17 4
13 2 25 -5 29 -7 5 -8 9 -2 11 5 2 12 23 15 47 4 40 3 42 -22 42 -30 1 -66 24
-57 38 3 6 15 8 26 5 11 -3 17 -9 14 -14 -3 -5 0 -9 5 -9 6 0 11 4 11 10 0 5
6 7 14 4 14 -6 16 5 32 185 l6 74 -31 -5 c-41 -6 -40 8 3 22 21 7 36 19 40 33
9 35 7 49 -6 41 -7 -4 -5 2 5 13 9 11 17 26 17 34 0 10 -2 11 -8 2 -5 -9 -17
-10 -37 -4 -29 9 -29 9 -5 11 l25 2 -25 9 c-20 7 -17 7 13 3 26 -3 38 -1 41 8
2 7 11 45 20 83 9 39 28 101 42 138 25 66 26 69 8 82 -18 13 -18 14 4 8 12 -3
22 -1 22 5 0 6 17 27 38 46 34 33 35 36 14 36 -13 0 -21 4 -18 9 3 4 18 7 33
5 24 -4 25 -3 8 5 -11 5 -31 10 -45 11 -18 2 -20 4 -7 7 9 2 14 9 11 15 -4 5
3 5 16 -2 15 -8 20 -8 16 -1 -5 7 2 11 18 11 16 0 26 -6 26 -15 0 -9 6 -12 15
-9 23 9 18 23 -12 30 -25 7 -25 8 -8 15 29 11 37 10 29 -3 -5 -8 -2 -9 12 -3
10 4 29 8 41 8 14 -1 20 3 16 10 -4 6 -1 7 6 2 14 -8 63 14 56 25 -2 4 2 7 10
7 8 0 12 -4 9 -9 -3 -4 0 -8 5 -8 6 0 11 5 11 11 0 5 5 7 10 4 6 -4 17 -1 25
5 8 7 15 10 15 7 0 -3 16 1 35 9 19 7 50 14 69 14 35 0 62 18 29 19 -64 2 -92
18 -65 37 13 9 19 7 34 -10 14 -17 17 -18 18 -4 0 9 -6 19 -12 21 -8 3 -6 6 5
6 9 1 17 -3 17 -9 0 -14 37 -12 43 3 4 9 6 9 6 0 1 -6 -3 -15 -9 -18 -5 -3
-10 -12 -10 -20 0 -11 7 -11 45 2 39 13 44 18 41 39 -3 13 2 30 9 38 12 11 12
15 1 19 -7 3 -19 2 -26 -3 -10 -6 -9 -9 1 -13 9 -3 7 -6 -6 -6 -16 -1 -20 6
-21 29 -1 17 3 30 7 30 5 0 9 -4 9 -9 0 -12 56 -19 72 -9 10 6 8 8 -4 8 -10 0
-18 5 -18 11 0 5 -3 8 -7 6 -5 -2 -16 4 -25 15 -24 24 -3 23 24 -2 12 -11 28
-20 35 -20 7 0 13 -4 13 -9 0 -5 3 -17 7 -27 5 -14 2 -16 -15 -12 -15 4 -19 2
-15 -9 3 -8 0 -13 -8 -11 -7 2 -14 -4 -16 -12 -5 -22 67 -17 103 6 15 10 33
19 41 19 7 0 12 4 10 9 -1 5 -22 10 -47 10 -67 1 -50 19 19 20 33 1 57 -2 54
-6 -2 -5 6 -8 18 -8 12 0 20 2 17 6 -3 3 -2 21 2 40 6 26 5 34 -6 34 -8 0 -14
9 -14 20 0 11 5 19 12 17 8 -1 11 9 9 31 -1 18 3 40 11 49 9 12 9 15 1 9 -7
-4 -13 -3 -13 3 0 17 14 20 28 5 7 -8 9 -14 5 -14 -15 0 113 -82 187 -119 93
-46 160 -88 160 -100 0 -5 -7 -14 -15 -21 -8 -7 -15 -17 -15 -22 0 -6 -9 -23
-20 -38 l-21 -29 34 -9 c35 -10 87 -5 87 7 0 15 61 42 81 36 17 -6 19 -12 13
-33 -4 -15 -8 -38 -8 -52 -1 -14 -5 -28 -11 -32 -5 -4 7 -7 28 -6 21 1 37 6
37 13 0 6 10 21 23 33 l24 22 10 -23 c6 -14 21 -27 32 -30 12 -3 19 -1 15 4
-3 5 6 9 20 9 23 0 76 49 76 70 0 5 -12 18 -27 30 l-28 21 30 -5 c25 -5 27 -4
12 5 -15 9 -16 13 -6 26 11 12 10 14 -2 13 -7 -1 -26 -2 -41 -1 -22 1 -28 6
-27 24 0 16 2 18 7 7 4 -8 13 -15 20 -16 6 -1 23 -2 37 -2 25 -2 37 -32 13
-32 -6 0 -9 -3 -6 -6 11 -10 48 20 48 39 0 10 4 16 9 13 5 -3 11 8 15 24 3 17
10 30 16 30 6 0 8 -4 5 -10 -4 -6 6 -10 24 -10 16 0 32 6 34 13 4 7 6 6 6 -5
1 -12 7 -15 23 -10 l21 5 -23 19 c-12 10 -19 22 -15 26 4 4 10 1 12 -5 3 -7
11 -13 19 -13 8 0 13 -3 13 -7 -3 -19 2 -34 9 -29 8 5 42 -28 42 -41 0 -3 6
-11 14 -17 20 -15 26 -96 7 -96 -5 0 -12 8 -15 18 -10 31 -51 71 -65 63 -10
-7 -10 -9 2 -14 21 -8 9 -55 -16 -63 -20 -6 -20 -7 -1 -17 36 -20 184 -76 179
-67 -3 5 0 12 6 15 6 4 13 -2 16 -13 3 -11 15 -23 28 -26 13 -3 30 -9 39 -12
12 -5 16 0 17 17 1 21 3 19 16 -11 9 -19 18 -29 20 -22 7 17 23 15 23 -4 0 -9
6 -14 13 -11 6 2 17 -3 23 -11 9 -12 13 -12 19 -2 5 7 4 11 -1 7 -5 -3 -8 9
-7 26 1 18 2 43 2 57 1 18 4 21 10 12 4 -8 7 -38 6 -68 -1 -30 2 -57 6 -59 10
-7 15 13 18 64 1 24 6 52 12 63 10 18 9 19 -13 22 -7 1 -12 9 -10 19 2 10 -3
17 -13 17 -8 0 -15 -6 -16 -12 0 -7 -4 -3 -9 10 -5 12 -21 27 -35 32 -14 5
-25 14 -25 19 0 6 -7 8 -15 5 -11 -5 -15 1 -16 22 0 16 -3 24 -5 17 -6 -15
-34 -5 -54 19 -8 10 -25 20 -38 23 -13 2 -36 17 -50 34 -15 16 -37 32 -49 35
-30 9 -75 70 -66 92 5 14 2 16 -18 11 -13 -4 -31 -7 -39 -7 -13 0 -13 -1 0
-10 10 -7 11 -10 2 -10 -7 0 -15 7 -18 15 -4 9 -19 15 -35 15 -16 0 -29 5 -29
11 0 5 8 9 18 8 50 -5 62 1 61 29 -1 15 -3 20 -6 10 -2 -10 -10 -15 -19 -11
-8 3 -14 0 -14 -6 0 -16 -27 -13 -34 4 -3 8 -10 15 -17 15 -6 0 -9 -7 -5 -15
3 -9 0 -15 -9 -15 -8 0 -15 5 -15 10 0 6 -16 10 -36 10 -25 0 -41 7 -54 22
l-17 22 0 -27 c0 -25 3 -27 38 -27 22 0 39 -3 39 -8 0 -4 -20 -7 -45 -7 l-45
0 1 50 c0 28 3 44 6 38 2 -7 14 -13 26 -13 18 0 20 2 7 11 -12 9 -11 9 5 3 11
-4 41 -8 67 -10 39 -2 48 1 53 17 4 10 4 23 1 28 -3 5 1 12 10 15 15 6 15 -4
-4 -53 -3 -9 -1 -12 6 -7 7 4 12 15 13 24 0 14 2 13 9 -3 8 -18 9 -18 9 -2 1
25 21 11 21 -16 0 -15 3 -18 11 -10 12 12 -4 53 -21 53 -6 0 -10 4 -10 10 0 5
6 9 13 7 6 -1 11 6 11 16 -1 9 2 17 7 17 8 0 13 -14 10 -32 0 -4 8 -6 19 -5
15 1 19 6 14 22 -4 16 -3 17 5 5 6 -8 8 -23 5 -32 -4 -13 0 -18 13 -19 10 0
13 -3 6 -6 -22 -8 -14 -30 12 -35 13 -3 22 -1 19 3 -3 5 4 9 16 9 12 0 19 4
15 10 -3 5 -12 7 -20 3 -8 -3 -15 0 -15 7 0 8 10 11 30 7 37 -8 46 5 14 20
-13 6 -22 7 -18 2 3 -5 -7 -9 -23 -9 -22 0 -25 2 -13 10 12 8 12 10 -5 11 -17
1 -16 2 5 9 l25 8 -27 1 c-16 1 -28 5 -28 10 0 9 29 6 60 -7 8 -3 22 -6 30 -8
8 -1 30 -4 48 -7 25 -4 32 -2 32 11 0 15 1 15 16 0 14 -14 20 -14 50 -2 18 8
54 14 79 14 25 0 45 5 45 10 0 10 -6 12 -50 14 -14 1 -24 6 -23 14 2 6 -2 12
-7 12 -6 0 -10 -4 -10 -10 0 -5 -9 -10 -19 -10 -11 0 -23 5 -26 10 -3 6 1 10
10 10 9 0 13 5 10 10 -3 6 -1 10 4 10 6 0 2 9 -8 19 -23 23 -52 18 -69 -9 -10
-17 -9 -20 13 -26 31 -8 32 -20 3 -28 -36 -9 -45 -7 -45 12 1 67 -3 84 -16 73
-8 -6 -17 -8 -21 -4 -6 6 -35 -25 -36 -39 0 -5 8 -8 18 -9 10 0 12 -3 5 -6 -7
-2 -14 -17 -14 -31 -1 -17 -3 -21 -6 -9 -5 20 -52 24 -71 5 -19 -19 -27 0 -14
35 20 55 24 53 -88 58 -8 1 -32 0 -53 -2 -33 -2 -37 -5 -32 -23 5 -17 4 -18
-4 -6 -13 19 -14 5 -2 -19 5 -9 6 -23 2 -30 -6 -10 -10 -9 -14 3 -9 23 -30 20
-24 -4 3 -11 1 -20 -4 -20 -11 0 -12 47 -1 52 15 7 62 85 62 105 0 11 7 37 15
56 31 74 12 137 -40 137 -22 0 -23 3 -18 38 3 20 10 46 16 57 25 48 23 222 -3
304 -11 35 -20 72 -20 83 0 35 -29 88 -52 97 -13 5 -30 16 -38 25 -20 25 -113
66 -149 66 -21 0 -34 6 -39 18 -4 9 -11 17 -17 17 -5 0 -44 4 -85 8 -41 5 -97
10 -125 11 -27 2 -61 6 -75 10 -14 3 -39 0 -56 -8z m196 -267 c0 -6 9 -8 21
-4 30 10 77 -42 75 -84 -1 -24 -5 -30 -18 -25 -12 3 -18 0 -18 -10 0 -8 9 -17
19 -21 12 -4 18 -12 14 -21 -3 -8 1 -14 10 -14 9 0 25 -12 37 -27 l22 -28 -44
-8 c-23 -5 -51 -9 -60 -10 -25 -3 -97 -50 -98 -64 0 -19 -20 -16 -20 3 0 8 -4
12 -10 9 -5 -3 -10 -1 -10 4 0 6 -9 11 -19 11 -11 0 -23 5 -26 10 -10 17 -160
13 -175 -5 -14 -17 -30 -11 -30 11 0 8 8 14 18 14 13 0 14 2 3 9 -7 5 -14 25
-15 45 0 21 -8 41 -16 46 -10 7 -11 10 -2 10 19 0 14 30 -5 31 -14 0 -13 2 5
9 12 5 22 15 22 21 0 8 -5 7 -17 -2 -17 -13 -17 -13 -2 11 9 14 44 36 85 53
56 23 79 28 119 23 28 -3 66 -1 85 3 49 12 50 12 50 0z m-9 -434 c6 -33 15
-64 20 -69 29 -31 -21 -70 -85 -68 -24 1 -55 -4 -70 -11 l-25 -14 20 -22 c14
-15 27 -20 38 -15 43 18 61 17 61 -5 0 -11 5 -21 10 -21 6 0 10 4 10 8 0 4 17
6 38 3 l37 -4 -49 -13 c-28 -7 -53 -11 -57 -9 -3 3 -30 -2 -59 -11 -40 -12
-55 -13 -66 -3 -7 6 -21 9 -29 5 -21 -8 -19 0 12 40 17 23 23 38 16 45 -15 15
-37 2 -66 -43 l-27 -41 30 -19 c17 -10 30 -21 29 -25 -4 -27 2 -33 21 -23 28
15 102 -6 131 -36 12 -13 30 -24 39 -24 31 0 80 -22 80 -36 0 -8 -6 -14 -12
-14 -9 0 -8 -4 2 -10 13 -8 11 -11 -7 -16 -13 -4 -23 -11 -23 -16 0 -5 -9 -6
-20 -3 -12 4 -28 1 -36 -6 -22 -18 -64 -20 -64 -3 0 21 -20 17 -28 -5 -7 -19
-10 -18 -62 15 -30 19 -64 34 -77 34 -23 0 -63 32 -63 50 0 6 -6 10 -14 10
-21 0 -45 84 -45 155 0 33 -3 90 -7 128 -5 49 -4 67 5 67 7 0 9 -4 6 -10 -3
-6 1 -7 9 -4 9 3 13 11 10 16 -5 7 16 8 62 3 94 -11 141 -7 173 12 37 24 61
50 61 67 0 18 31 26 47 12 7 -7 18 -38 24 -71z m146 -36 c8 -8 23 -9 50 -2 21
5 49 7 63 3 21 -5 25 -12 27 -45 2 -32 -3 -44 -31 -71 l-34 -33 -41 21 c-48
24 -63 46 -65 99 -1 39 10 49 31 28z m3294 -1088 c-8 -5 -21 -7 -29 -3 -10 3
-13 1 -8 -6 4 -7 26 -12 49 -13 30 0 36 -3 23 -8 -14 -5 -16 -10 -7 -15 6 -4
18 -5 26 -2 8 3 14 2 14 -2 -4 -27 6 -31 74 -35 59 -2 52 -4 -43 -7 -63 -1
-103 -5 -87 -7 43 -7 32 -26 -13 -21 -22 2 -40 1 -40 -3 0 -8 52 -19 88 -19
43 0 17 -11 -39 -17 -67 -7 -70 -9 -28 -21 19 -5 36 -6 39 -2 6 8 59 4 68 -4
3 -3 -9 -6 -26 -6 -18 0 -32 -4 -32 -10 0 -5 10 -10 23 -10 12 0 32 -1 45 -1
12 0 22 -5 22 -10 0 -6 -12 -8 -27 -5 -28 6 -125 -6 -154 -18 -10 -5 -16 -2
-16 8 0 9 8 14 18 13 10 -1 18 3 19 8 0 6 -23 11 -52 13 -29 2 -58 8 -64 13
-8 7 -13 6 -16 -3 -3 -7 7 -18 21 -25 23 -10 23 -12 6 -13 -15 -1 -12 -5 12
-13 l32 -12 -24 -12 c-20 -9 -25 -8 -25 3 0 8 -7 14 -15 14 -9 0 -15 -7 -13
-17 2 -10 -5 -19 -16 -21 -10 -2 -16 0 -13 6 6 9 -59 35 -88 35 -8 0 -11 5 -8
10 4 6 -2 8 -14 5 -17 -4 -22 0 -26 21 -3 14 -1 34 4 44 8 14 2 26 -31 59 -22
23 -38 48 -36 55 3 7 0 13 -7 14 -7 1 5 5 26 10 24 6 45 5 57 -1 10 -6 20 -6
22 -1 2 5 33 6 71 2 38 -4 70 -4 73 0 2 4 20 5 40 3 19 -2 43 0 52 6 15 8 13
10 -8 11 -23 1 -23 2 5 9 44 11 93 12 76 1z m-9556 -56 c-11 -8 -24 -18 -30
-22 -5 -5 -18 -7 -27 -5 -10 2 -18 -1 -18 -6 0 -14 28 -23 35 -11 4 5 11 6 17
3 6 -4 8 -2 4 4 -11 18 11 23 27 7 35 -35 111 -45 160 -22 31 14 35 27 9 27
-10 0 -23 5 -29 11 -7 7 -22 9 -40 4 -33 -10 -83 -12 -83 -4 0 11 154 27 177
18 31 -11 85 -12 115 0 27 10 88 3 88 -10 0 -5 -19 -9 -42 -8 -90 2 -148 -2
-143 -12 4 -5 1 -9 -5 -9 -6 0 -8 -5 -5 -10 4 -6 22 -8 43 -5 l37 6 -32 -15
c-36 -16 -288 -33 -264 -17 22 14 -1 19 -52 11 -26 -4 -50 -3 -53 2 -3 4 3 8
12 8 32 0 4 14 -39 19 -28 4 -42 11 -42 21 0 12 19 16 90 21 50 3 95 6 100 7
6 1 1 -5 -10 -13z m129 -127 c-5 -8 8 -9 40 -6 27 3 44 2 39 -3 -5 -5 -23 -10
-41 -12 -18 -2 -38 -9 -44 -15 -7 -7 -27 -12 -44 -12 -18 0 -36 -4 -39 -10 -3
-5 -18 -10 -32 -10 -22 0 -24 -2 -12 -16 10 -12 24 -15 60 -10 34 5 48 3 52
-7 7 -18 -90 -16 -123 3 -30 17 -50 21 -64 13 -5 -4 -1 -10 10 -14 11 -5 -3
-6 -33 -3 -43 4 -53 2 -53 -11 0 -8 -4 -15 -10 -15 -5 0 -10 6 -10 13 0 7 -8
13 -17 14 -10 1 -30 5 -45 9 -18 4 -28 2 -28 -5 0 -19 -17 -12 -23 9 -3 14
-14 20 -34 21 -23 1 -20 3 16 12 34 8 46 8 49 -1 5 -15 199 -17 204 -2 2 6 32
12 68 15 71 6 108 25 48 25 -23 0 -38 6 -42 15 -3 9 0 15 8 15 8 0 16 -6 19
-12 3 -10 12 -9 38 3 35 17 54 16 43 -3z m7375 -128 c7 -34 28 -38 23 -5 -1
15 0 16 7 6 6 -10 13 -11 29 -2 30 16 51 14 29 -3 -13 -11 -16 -21 -11 -42 7
-27 6 -28 -10 -15 -15 13 -17 12 -12 -12 3 -20 0 -27 -10 -27 -10 0 -13 6 -10
18 3 9 2 22 -2 27 -12 16 -32 16 -32 0 0 -8 -4 -15 -10 -15 -5 0 -10 -5 -10
-10 0 -6 6 -10 14 -8 8 2 24 -8 35 -21 13 -15 21 -19 21 -10 0 12 2 12 9 -1
12 -18 3 -33 -14 -26 -7 2 -16 -5 -20 -17 -22 -62 -23 -64 -24 -39 -1 13 -5
20 -11 17 -5 -3 -10 -2 -10 4 0 5 -9 13 -20 16 -11 4 -18 10 -15 15 3 5 1 11
-5 15 -6 4 -4 15 6 31 10 15 12 24 5 24 -6 0 -11 10 -11 21 0 18 2 19 15 9 12
-10 15 -9 15 4 0 10 5 14 10 11 7 -4 8 8 4 37 -8 48 5 47 15 -2z m856 4 c14
-9 25 -13 25 -9 0 4 6 3 13 -2 6 -5 21 -10 33 -10 11 -1 35 -15 53 -32 18 -17
36 -31 41 -31 4 0 6 -20 5 -45 -2 -33 1 -45 11 -45 8 0 14 7 14 15 0 8 4 15 9
15 21 0 41 -13 41 -27 0 -10 -6 -13 -16 -9 -19 7 -47 -12 -38 -25 3 -5 0 -9
-7 -9 -6 0 -18 -8 -25 -17 -7 -10 -16 -14 -21 -10 -4 5 3 17 17 28 21 16 23
20 10 28 -9 7 -19 6 -27 -1 -22 -18 -26 -2 -8 26 14 21 14 25 3 21 -11 -4 -14
3 -12 35 2 49 -20 51 -24 2 -4 -57 -5 -60 -17 -55 -7 2 -15 -3 -19 -13 -5 -13
-2 -15 18 -10 16 4 26 1 30 -10 7 -19 -28 -58 -46 -51 -9 4 -8 6 3 6 22 1 32
28 13 35 -7 3 -13 0 -11 -7 1 -7 -7 -11 -21 -10 -20 3 -21 0 -12 -17 8 -14 8
-20 0 -20 -6 0 -18 -7 -27 -15 -8 -9 -18 -13 -21 -10 -3 3 4 12 16 21 17 11
21 21 16 40 -5 18 -1 29 12 39 11 7 15 17 10 22 -5 4 -11 2 -13 -4 -3 -7 -14
-13 -24 -13 -13 0 -18 4 -13 13 8 13 -35 -20 -49 -38 -4 -6 -13 -3 -22 9 -9
12 -15 15 -15 7 0 -8 -6 -11 -16 -7 -13 5 -14 4 -6 -7 7 -8 9 -17 5 -20 -3 -4
0 -13 7 -22 8 -10 9 -15 1 -15 -6 0 -11 5 -11 11 0 8 -4 8 -14 0 -12 -10 -13
-3 -11 46 3 42 1 53 -6 41 -14 -25 -32 -22 -26 3 6 21 5 21 -19 -2 -26 -25
-32 -15 -10 17 13 18 12 20 -6 21 -18 2 -20 -2 -15 -43 4 -38 2 -44 -14 -44
-11 0 -19 -4 -19 -10 0 -5 13 -7 32 -3 23 5 29 3 24 -6 -5 -7 -14 -10 -21 -7
-7 2 -17 0 -23 -6 -7 -7 -17 -6 -32 5 l-22 15 21 14 c11 7 21 22 21 33 0 18
-2 17 -25 -7 -14 -15 -25 -32 -25 -38 0 -5 -9 -10 -20 -10 -11 0 -20 -5 -20
-11 0 -5 -5 -7 -10 -4 -6 4 -7 11 -4 17 5 7 0 9 -14 6 -13 -4 -22 -1 -22 5 0
7 -7 4 -14 -5 -7 -10 -18 -18 -25 -18 -6 0 -11 -4 -11 -9 0 -5 -11 -8 -25 -8
-14 0 -25 1 -25 3 0 12 44 84 51 84 16 0 10 -23 -13 -47 -30 -32 -7 -29 28 5
17 16 39 27 54 26 14 -1 29 3 33 10 5 7 7 4 5 -8 -2 -10 3 -21 10 -23 8 -3 10
1 5 13 -3 10 -2 15 3 12 5 -3 15 0 21 8 15 16 0 29 -24 20 -22 -9 -69 22 -55
36 16 16 43 2 35 -19 -6 -17 -5 -17 14 0 16 14 22 15 26 5 3 -8 6 -6 6 5 1 11
-4 17 -11 14 -20 -7 -48 12 -42 28 5 11 11 11 30 3 18 -8 27 -8 40 3 14 11 18
11 28 -3 12 -17 76 -32 76 -18 0 4 11 11 24 14 23 6 44 46 24 46 -15 0 -4 23
13 26 12 1 15 -5 11 -24 -5 -25 -4 -26 12 -10 9 10 16 20 16 24 -1 5 31 27 48
33 1 1 14 -6 27 -15z m436 -14 c5 0 9 5 9 10 0 6 5 10 10 10 6 0 10 -10 10
-22 0 -20 1 -21 13 -4 13 17 14 17 30 1 15 -15 21 -13 18 8 0 4 11 7 25 7 25
0 26 -2 21 -36 -3 -20 -14 -42 -24 -49 -10 -7 -14 -17 -10 -21 4 -5 11 -4 15
2 12 18 71 43 78 33 8 -14 40 -11 53 5 9 11 17 11 36 2 30 -13 33 -30 5 -21
-11 4 -20 2 -20 -4 0 -6 -8 -11 -17 -12 -11 0 -13 -3 -5 -6 6 -2 12 -10 12
-18 0 -7 8 -19 17 -26 15 -12 16 -12 10 3 -4 12 -2 15 9 11 20 -7 18 -16 -12
-48 -19 -21 -28 -25 -37 -16 -9 9 -9 14 1 20 9 5 2 8 -18 9 -17 0 -33 -5 -36
-12 -5 -13 -64 -17 -64 -5 0 10 -65 -3 -72 -15 -5 -7 -8 -5 -8 5 0 9 3 19 7
23 23 23 -1 67 -28 50 -18 -11 -31 7 -17 24 11 13 10 15 -7 10 -11 -3 -26 1
-33 9 -17 17 -32 17 -32 -2 0 -9 -6 -18 -13 -21 -7 -2 -14 -14 -14 -27 -1 -12
-7 -23 -13 -25 -5 -2 -10 -12 -10 -23 0 -10 -4 -19 -9 -19 -5 0 -12 -11 -15
-25 -4 -14 -11 -25 -17 -25 -6 0 -9 3 -7 8 24 46 38 87 34 98 -3 7 -2 15 2 17
4 2 1 2 -5 1 -7 -2 -17 4 -22 14 -7 13 -9 11 -8 -10 1 -14 5 -24 9 -22 4 2 9
0 12 -5 3 -5 -5 -11 -19 -13 -16 -3 -25 -1 -25 7 0 7 -8 16 -17 19 -15 6 -15
8 -3 16 12 8 10 10 -7 10 -13 0 -23 -5 -23 -11 0 -5 -5 -7 -10 -4 -6 4 -8 11
-5 16 4 5 3 9 -2 9 -4 0 -9 11 -9 25 -1 15 3 25 12 25 8 0 14 -7 14 -15 0 -23
47 -19 53 4 4 16 13 18 69 16 36 -1 69 -5 75 -8 6 -4 13 1 15 11 7 25 -1 42
-18 35 -8 -3 -14 0 -14 5 0 16 34 20 38 5 2 -7 8 -13 13 -13z m-1107 -87 c6
-15 36 -18 36 -3 0 6 5 10 10 10 6 0 10 -6 9 -12 -3 -27 2 -38 16 -38 8 0 15
7 15 16 0 9 -5 12 -11 8 -7 -4 -10 -1 -7 7 3 8 15 15 29 16 13 1 18 0 12 -3
-18 -8 -16 -17 12 -50 14 -16 23 -36 20 -45 -3 -10 1 -19 10 -23 19 -7 20 -26
1 -26 -8 0 -17 8 -21 18 -6 16 -7 16 -21 -2 -7 -11 -17 -16 -21 -13 -3 4 4 19
18 33 l24 27 -29 -6 c-16 -2 -43 1 -60 8 -28 12 -33 11 -55 -8 -23 -21 -24
-21 -16 -2 4 11 10 29 13 40 5 18 3 18 -11 6 -9 -7 -14 -17 -11 -22 3 -5 -2
-19 -12 -31 l-16 -23 5 23 c4 15 1 22 -6 19 -7 -3 -11 -9 -10 -15 1 -6 -11
-14 -29 -17 -20 -5 -26 -10 -18 -15 8 -5 9 -10 2 -14 -6 -3 -13 -2 -17 4 -4 6
-11 7 -17 4 -6 -4 -8 1 -6 12 2 12 11 18 22 16 15 -3 16 0 6 17 -11 21 -1 27
38 22 6 -1 12 6 12 17 0 10 5 23 12 30 9 9 9 12 -2 13 -8 1 -1 4 15 8 44 10
54 9 59 -6z m-5888 -12 c-12 -5 -15 -10 -9 -14 6 -4 25 0 42 9 27 14 33 14 46
1 13 -14 12 -17 -13 -25 -22 -9 -23 -11 -7 -12 17 -1 17 -3 -5 -11 -33 -14
-51 -18 -144 -30 -44 -5 -83 -12 -86 -14 -4 -2 -7 3 -7 11 0 8 5 13 11 11 6
-2 45 1 86 8 75 13 75 13 23 14 -63 1 -83 8 -84 30 0 10 -2 11 -6 4 -5 -15
-33 -18 -33 -4 0 6 -17 12 -37 14 -21 2 3 4 54 4 51 0 90 -4 87 -8 -3 -5 2 -9
11 -9 8 0 18 7 21 15 4 9 18 15 38 14 25 0 27 -2 12 -8z m1048 -72 c-5 -8 3
-10 25 -7 17 2 31 1 31 -4 0 -4 -26 -9 -57 -9 -32 -1 -49 -4 -38 -7 l20 -5
-20 -8 c-14 -6 -7 -7 20 -3 22 3 49 7 60 8 11 2 14 1 7 -1 -10 -4 -9 -8 5 -20
17 -14 17 -14 0 -9 -47 15 -72 18 -62 8 6 -5 19 -12 30 -15 13 -3 7 -5 -15 -7
-19 -1 -29 -4 -22 -7 6 -2 12 -9 12 -14 0 -6 -5 -7 -12 -3 -7 5 -26 7 -43 6
l-30 -2 35 20 c27 15 31 19 15 20 -11 1 -44 5 -73 9 -50 7 -75 0 -52 -14 15
-9 12 -25 -5 -25 -8 0 -15 7 -15 15 0 9 -9 15 -25 15 -14 0 -25 -4 -25 -10 0
-5 -13 -10 -30 -10 -16 0 -30 -4 -30 -10 0 -5 -7 -10 -16 -10 -9 0 -24 -8 -33
-18 -10 -12 -36 -21 -71 -25 -36 -4 -48 -3 -35 3 11 5 32 9 48 9 24 1 32 10
28 33 0 4 7 4 16 1 11 -4 14 -3 9 5 -5 8 2 12 21 12 22 0 25 2 13 10 -13 9
-13 10 0 11 8 1 -1 5 -20 8 -33 7 -31 8 25 14 33 4 73 12 89 17 20 6 32 6 36
0 3 -5 22 -12 40 -16 24 -4 31 -3 21 4 -11 8 -9 12 9 22 20 11 22 10 17 -3 -3
-9 1 -18 8 -21 18 -6 27 7 19 28 -5 13 2 16 36 16 28 0 39 -4 34 -11z m-1332
-133 c4 -6 44 -11 90 -12 116 -3 252 -34 149 -34 -23 0 -58 -7 -78 -15 -20 -9
-44 -13 -54 -10 -9 3 -20 1 -24 -5 -3 -5 -30 -9 -58 -9 -50 2 -50 2 -17 10 24
5 11 7 -45 4 -69 -3 -73 -3 -30 5 28 4 93 11 145 14 52 3 96 5 98 6 1 0 2 4 2
9 0 14 -32 23 -44 11 -12 -12 -100 -14 -92 -2 3 5 -8 9 -25 9 -21 0 -28 -4
-25 -14 5 -11 -2 -12 -32 -6 -43 9 -118 9 -182 -1 l-45 -7 34 16 c20 9 62 15
106 15 78 0 108 6 99 21 -7 12 19 7 28 -5z m-992 -94 c-11 -2 -20 -10 -20 -18
0 -11 -16 -14 -69 -14 -43 0 -71 4 -73 11 -3 8 -13 9 -28 4 -23 -7 -23 -8 -5
-21 14 -10 15 -14 4 -15 -8 0 -4 -4 8 -9 12 -5 31 -7 42 -5 12 2 20 -1 18 -8
-1 -7 5 -12 13 -12 8 0 14 5 13 11 -2 10 87 30 110 25 5 -1 5 4 1 10 -5 9 0
10 17 6 13 -4 43 -7 67 -7 25 0 42 -5 42 -11 0 -8 -16 -10 -49 -6 -35 4 -53 2
-61 -8 -6 -7 -27 -15 -48 -18 -93 -14 -162 -31 -162 -39 0 -6 -7 -8 -15 -4 -8
3 -15 1 -15 -4 0 -15 50 -12 51 3 0 9 2 9 6 0 3 -10 9 -10 24 0 13 8 24 9 37
2 20 -13 37 -12 153 4 48 7 100 11 115 8 l29 -4 -32 -8 c-18 -4 -33 -11 -33
-16 0 -5 -20 -7 -45 -5 -24 2 -46 -1 -47 -6 -2 -4 -34 -11 -72 -15 -51 -5 -67
-3 -62 5 5 8 -4 12 -30 12 -33 0 -35 -2 -23 -17 13 -15 11 -16 -16 -9 -16 5
-35 9 -42 10 -7 1 -16 5 -19 9 -11 10 -94 8 -94 -2 0 -5 6 -12 13 -14 6 -3
-18 -6 -55 -6 -92 -1 -88 -21 5 -22 142 -1 114 -16 -46 -24 -87 -4 -161 -5
-164 -1 -4 3 8 6 26 6 19 0 30 4 26 10 -3 6 3 10 14 10 12 0 21 4 21 9 0 5 21
14 47 20 35 9 43 15 33 22 -11 6 -5 9 20 9 26 0 31 3 22 12 -18 18 -177 -8
-275 -45 -74 -28 -94 -31 -202 -32 -66 -1 -130 -5 -142 -9 -13 -4 -30 -3 -39
2 -23 13 79 31 140 25 28 -3 55 1 74 11 17 9 40 16 52 16 12 0 18 4 15 10 -4
7 2 9 19 4 14 -3 34 -3 43 0 30 12 -6 26 -72 27 l-60 2 49 7 c32 4 63 2 87 -7
41 -14 116 -12 244 7 44 6 102 11 129 11 61 0 71 5 49 27 -12 13 -34 17 -84
17 -37 0 -65 3 -62 7 2 5 13 8 24 8 11 0 18 4 15 9 -3 5 13 3 36 -3 34 -11 46
-10 70 1 15 8 28 19 28 25 0 7 15 9 39 5 22 -3 42 -2 46 1 3 3 23 5 43 4 20
-1 48 4 62 11 17 9 27 10 32 3 4 -7 -1 -12 -12 -14z m12970 -116 c103 -24 105
-36 5 -29 -49 3 -93 10 -96 16 -4 5 -9 5 -13 -2 -4 -6 -16 -11 -27 -11 -11 0
-18 -4 -15 -9 3 -5 -5 -12 -19 -15 -35 -9 -31 -24 8 -30 17 -2 -4 -3 -48 -1
-88 3 -147 -3 -140 -15 2 -4 -8 -5 -23 -3 -15 2 -58 5 -96 8 -88 5 -126 14
-123 28 1 7 -19 12 -53 14 -30 2 -61 5 -69 8 -8 3 -57 7 -110 9 -55 2 -83 0
-66 -4 l30 -8 -32 -1 c-18 0 -36 5 -40 13 -4 7 -14 15 -20 17 -7 2 75 5 183 6
113 2 193 -1 190 -6 -7 -11 22 -23 36 -15 19 12 87 11 92 -2 4 -11 59 -11 116
1 25 5 80 -14 80 -27 0 -5 12 -8 26 -8 17 0 28 6 31 20 3 11 13 21 22 21 12 1
11 3 -4 6 -17 5 -15 7 10 17 40 17 99 17 165 2z m-821 -300 c4 -3 21 0 37 6
34 12 178 -7 168 -23 -3 -5 -15 -9 -27 -9 -31 0 -8 -17 31 -23 58 -9 48 -17
-21 -17 -36 0 -69 -4 -72 -10 -6 -9 43 -15 89 -10 10 1 15 -3 12 -8 -10 -17
10 -23 70 -23 45 0 53 -3 44 -14 -6 -7 -20 -10 -32 -7 -12 3 -19 1 -16 -4 4
-5 -15 -7 -43 -6 -31 3 -47 8 -43 14 5 7 -3 9 -22 5 -74 -15 -90 -17 -64 -9
22 7 23 9 7 15 -10 4 -40 7 -67 7 -31 0 -50 5 -53 14 -3 8 -15 12 -30 9 -14
-3 -34 0 -46 6 -12 7 -49 14 -84 17 -34 3 -93 12 -132 19 -54 11 -72 11 -84 2
-12 -9 -13 -9 -7 1 5 8 1 12 -11 12 -17 1 -17 2 1 15 11 9 40 15 65 14 25 0
40 -3 34 -6 -28 -11 -10 -19 33 -16 25 3 51 0 57 -4 17 -13 120 -15 151 -3 20
7 26 6 26 -4 0 -8 7 -17 16 -20 12 -4 15 -2 10 9 -3 9 0 15 9 15 8 0 15 -4 15
-10 0 -5 20 -8 44 -7 25 1 42 5 38 8 -14 12 -129 26 -199 24 -40 -2 -73 -1
-73 0 0 2 3 10 6 19 5 13 20 15 80 11 41 -2 78 -7 83 -9z m456 -56 c3 -5 27
-7 53 -4 35 4 43 3 32 -5 -12 -9 -9 -11 15 -12 17 -1 34 -1 39 0 5 1 23 -3 40
-10 17 -6 57 -13 89 -16 32 -2 81 -15 110 -28 l52 -23 -60 5 c-33 3 -68 10
-78 15 -10 5 -86 12 -169 15 -135 4 -150 3 -145 -11 4 -10 1 -16 -8 -16 -9 0
-12 6 -8 16 5 14 0 16 -30 12 -41 -4 -43 -3 -22 18 13 13 35 20 80 23 6 1 4 5
-4 10 -8 5 -20 7 -28 4 -7 -3 -13 0 -13 6 0 14 47 15 55 1z m-177 -126 c28 -3
42 -10 42 -20 0 -12 -9 -13 -45 -8 -36 4 -45 3 -45 -9 0 -21 41 -29 115 -21
46 5 65 3 65 -5 0 -6 9 -11 20 -11 12 0 34 -7 51 -16 16 -8 39 -12 49 -9 11 3
42 -1 71 -9 28 -9 55 -13 60 -11 12 8 59 -6 59 -17 0 -6 -13 -8 -32 -4 -18 4
-80 11 -138 17 -57 5 -107 15 -111 21 -8 12 -20 16 -78 25 -22 4 -31 2 -27 -5
3 -5 0 -12 -7 -15 -17 -6 -66 3 -73 14 -3 5 -31 9 -62 9 -77 0 -101 16 -39 25
61 9 70 25 15 26 -24 0 -80 1 -126 1 -45 1 -85 5 -88 9 -4 8 25 14 49 10 4 0
7 3 7 9 0 10 180 6 268 -6z m-12944 -130 c22 -8 10 -24 -18 -24 -13 0 -38 -6
-56 -14 -30 -12 -25 -13 66 -9 73 3 109 10 136 24 49 26 240 36 231 11 -5 -12
-2 -13 11 -5 11 6 39 6 73 1 66 -10 80 -17 62 -29 -19 -12 -116 -11 -124 1 -3
6 -17 10 -30 10 -13 0 -27 -4 -30 -10 -3 -5 -21 -9 -38 -9 -24 1 -26 3 -9 6
31 6 28 19 -7 26 -42 9 -100 -1 -144 -25 -28 -14 -59 -20 -116 -21 -44 -1 -77
-5 -74 -9 2 -5 -5 -8 -17 -8 -12 0 -29 -4 -38 -9 -9 -4 -35 -11 -57 -14 -37
-6 -38 -5 -21 8 19 15 19 15 -5 16 -20 1 -21 2 -4 6 11 3 25 9 30 13 6 4 43
18 83 30 39 13 72 27 72 31 0 11 3 11 24 3z m4123 -150 c33 -9 18 -24 -23 -24
-43 0 -45 -20 -1 -21 53 -2 111 2 131 8 12 3 16 1 12 -6 -4 -6 -2 -11 3 -11 6
0 11 -5 11 -11 0 -8 -5 -8 -15 1 -15 13 -83 10 -134 -6 -17 -5 -22 -4 -17 4 8
13 -88 5 -116 -9 -23 -12 -37 -11 -18 1 16 10 -38 7 -117 -6 -30 -4 -43 -3
-43 5 0 6 17 11 39 11 22 0 43 5 46 10 4 6 -8 10 -30 10 -21 0 -34 4 -30 10 3
5 23 9 43 8 45 -3 159 10 198 22 38 11 35 11 61 4z m8408 -44 c22 -11 34 -20
27 -20 -7 0 -12 -5 -12 -11 0 -6 8 -8 19 -4 11 3 22 1 26 -5 3 -5 -2 -10 -13
-10 -11 0 -22 -6 -25 -14 -3 -7 -27 -17 -54 -22 l-48 -8 74 -8 c78 -8 92 -5
73 14 -16 16 -15 29 1 27 28 -3 39 2 33 16 -4 11 1 15 19 15 13 0 26 -4 29 -9
3 -4 23 -11 45 -15 22 -3 42 -10 45 -14 3 -5 -15 -6 -39 -2 -45 7 -85 -4 -49
-13 15 -4 14 -5 -5 -6 -19 -1 -21 -4 -12 -15 9 -11 9 -15 -1 -20 -7 -3 2 -3
20 0 31 5 90 -10 102 -27 3 -4 23 -9 44 -11 22 -2 41 -9 44 -16 5 -17 -57 -16
-110 2 -24 8 -56 16 -73 18 -19 2 -34 11 -41 25 -6 13 -14 20 -17 16 -8 -7
-153 -6 -178 2 -10 4 -16 12 -13 19 3 8 -9 16 -33 22 -27 6 -39 15 -41 30 -6
42 87 36 96 -6 5 -24 15 -28 51 -18 19 5 30 13 25 16 -5 4 -14 16 -20 27 -7
11 -20 19 -30 18 -27 -3 -46 5 -39 17 10 15 37 12 80 -10z m-8335 -178 c0 -9
-73 -28 -135 -36 -16 -2 -43 -7 -60 -11 -24 -5 -27 -4 -15 5 12 10 10 11 -10
6 -14 -3 -31 -6 -38 -6 -7 0 -10 -5 -7 -11 4 -6 13 -8 21 -5 8 3 14 1 14 -4 0
-6 -15 -10 -34 -10 -18 0 -39 -6 -45 -14 -12 -14 -122 -56 -148 -56 -7 0 -10
7 -7 18 5 15 4 15 -8 1 -7 -8 -31 -20 -53 -27 -45 -12 -87 -21 -67 -15 6 3 12
9 12 14 0 5 9 9 21 9 14 0 19 5 16 14 -7 17 18 23 86 21 26 0 47 3 47 8 0 4 6
7 13 5 6 -1 30 4 52 12 34 11 37 14 20 21 -11 4 -40 8 -64 8 -58 1 -50 7 22
15 39 4 56 3 52 -4 -3 -5 -1 -10 4 -10 6 0 11 7 11 15 0 9 6 12 15 9 8 -4 15
-1 15 6 0 6 4 9 9 5 5 -3 12 -1 16 5 3 5 12 10 18 10 7 0 6 -4 -3 -11 -11 -7
6 -9 60 -5 87 6 140 13 148 21 8 8 22 6 22 -3z m8458 -23 c-10 -7 -10 -9 3 -9
8 0 20 5 27 12 9 9 12 8 12 -6 0 -14 5 -17 21 -13 13 4 28 -1 38 -10 17 -18
25 -18 -104 2 -52 8 -26 -10 29 -19 36 -7 37 -8 20 -22 -18 -14 -18 -15 3 -9
12 3 24 1 27 -4 4 -6 13 -8 20 -5 13 5 34 -32 24 -42 -5 -4 -124 15 -148 24
-8 3 -21 4 -29 3 -7 -1 -10 2 -7 8 4 5 -2 14 -11 20 -16 9 -16 12 -3 22 11 8
12 12 3 16 -10 3 -9 8 2 19 8 9 19 13 24 9 6 -3 16 1 23 9 7 7 19 11 26 8 11
-4 11 -6 0 -13z m-10665 -29 c-14 -6 -21 -15 -17 -24 4 -11 0 -13 -15 -9 -12
3 -21 1 -21 -5 0 -6 -9 -14 -20 -17 -11 -4 -18 -11 -14 -16 3 -5 10 -6 16 -3
6 4 8 2 4 -4 -3 -5 0 -12 6 -15 7 -2 -9 -7 -37 -11 -63 -8 -170 -44 -136 -45
24 -1 24 -1 5 -16 -21 -16 -119 -21 -109 -6 3 5 -5 11 -17 13 -30 4 -20 23 12
24 52 2 57 3 40 14 -11 7 -7 10 18 10 17 0 32 4 32 9 0 4 -12 7 -27 5 -15 -1
-38 4 -52 11 -25 14 -23 14 31 15 31 0 59 -4 63 -10 10 -16 63 -7 60 10 -1 8
2 18 7 21 5 3 2 9 -7 13 -14 5 -16 2 -12 -13 3 -15 -1 -19 -22 -19 -14 0 -33
7 -43 15 -9 8 -38 18 -65 23 -46 9 -46 9 15 5 73 -5 246 11 270 25 10 5 26 9
37 9 18 0 18 -1 -2 -9z m5117 -67 c0 -37 -8 -75 -21 -103 -17 -38 -19 -56 -14
-112 6 -60 9 -68 29 -69 20 0 20 -1 1 -8 -16 -6 -19 -16 -17 -47 2 -22 -4 -61
-13 -87 -16 -47 -11 -90 16 -152 5 -11 10 -30 12 -42 2 -11 8 -27 14 -35 21
-27 46 -137 35 -155 -11 -17 -74 -26 -105 -14 -35 13 -87 -11 -162 -74 -102
-86 -237 -158 -446 -238 -242 -93 -277 -99 -464 -87 -321 21 -666 115 -843
228 -49 31 -53 36 -47 60 4 15 11 45 15 67 5 22 19 49 33 61 17 15 26 35 29
65 3 24 15 69 28 99 12 30 26 89 31 130 4 41 17 109 29 150 11 41 25 99 31
129 5 30 12 57 14 61 3 4 -1 31 -8 59 -8 34 -16 50 -24 46 -7 -2 -19 4 -25 15
-7 11 -21 20 -31 20 -10 0 -16 4 -13 9 7 11 46 2 46 -10 0 -5 7 -5 17 -2 11 4
14 3 9 -5 -4 -7 -2 -12 3 -12 6 0 11 12 11 26 0 19 4 24 18 20 42 -12 144 -36
217 -51 44 -9 92 -23 108 -30 15 -7 27 -9 27 -4 0 14 26 11 40 -6 9 -11 16
-12 25 -5 14 12 103 6 155 -9 22 -7 38 -7 44 -1 6 6 68 10 141 10 82 1 166 8
228 19 54 10 113 17 130 15 83 -11 197 -9 202 4 6 16 30 15 44 -2 13 -15 73
-17 87 -3 4 4 25 7 46 7 33 0 41 5 63 39 26 42 23 41 185 69 30 5 58 10 63 11
4 0 7 -25 7 -56z m6576 -56 c8 3 14 -1 14 -8 0 -10 3 -10 12 -1 14 14 52 16
43 2 -3 -5 3 -10 14 -10 12 0 21 -4 21 -10 0 -13 -6 -13 -31 1 -26 13 -62 3
-39 -11 11 -7 8 -10 -15 -11 -16 0 -24 -3 -17 -6 6 -2 12 -9 12 -15 0 -20 30
-39 52 -33 22 7 22 6 4 -8 -11 -8 -29 -13 -40 -10 -12 2 -4 -3 18 -12 21 -8
41 -13 45 -11 3 2 13 -3 20 -12 13 -14 12 -15 -10 -8 -54 18 -167 34 -233 35
-52 0 -72 4 -78 16 -6 9 -24 15 -48 15 -22 0 -40 4 -40 9 0 10 98 8 148 -4 21
-5 32 -4 32 4 0 6 -10 11 -23 11 -13 0 -27 4 -32 9 -6 5 -19 11 -30 14 -18 4
-18 5 3 6 12 0 22 5 22 10 0 5 19 9 43 9 64 -1 107 11 108 30 0 10 3 12 5 5 3
-7 12 -9 20 -6z m-13672 -112 c-4 -10 0 -15 15 -15 14 0 19 5 15 15 -4 8 -1
15 5 15 6 0 11 -4 11 -8 0 -5 24 -8 53 -8 29 0 68 -8 89 -18 33 -16 45 -17
100 -6 65 12 89 14 123 11 16 -2 13 -5 -10 -13 -16 -5 -40 -9 -52 -9 -12 0
-25 -4 -28 -9 -9 -15 -48 -13 -39 3 6 10 4 10 -7 0 -7 -7 -21 -13 -32 -13 -10
0 -17 -5 -15 -12 3 -9 31 -11 96 -9 50 1 96 0 102 -4 20 -12 -22 -32 -80 -39
-32 -3 -47 -2 -36 2 33 14 -6 22 -73 16 -49 -6 -58 -4 -58 10 0 9 9 16 21 16
14 0 17 3 9 11 -8 8 -18 6 -38 -7 -20 -13 -23 -19 -13 -25 7 -5 -26 -9 -79 -9
-51 0 -104 -5 -119 -12 -22 -10 -28 -10 -38 4 -7 9 -28 18 -47 21 -18 2 13 4
70 3 73 0 106 4 109 12 2 7 25 12 55 13 45 1 48 2 22 9 -28 7 -27 8 13 9 24 0
41 5 38 10 -8 12 -55 20 -62 10 -3 -5 -14 -9 -26 -9 -17 0 -18 2 -8 15 15 18
6 19 -45 1 -23 -8 -44 -11 -51 -6 -5 5 -21 7 -35 4 -21 -4 -21 -3 -4 5 21 9
15 14 -30 24 -11 3 3 5 32 6 43 1 51 -2 47 -14z m13063 -331 c9 -23 -7 -33
-67 -39 -30 -4 -61 -8 -68 -11 -7 -2 -10 0 -7 5 10 17 -12 21 -25 6 -7 -8 -18
-15 -24 -15 -6 0 -12 -8 -12 -18 0 -15 12 -18 96 -21 52 -1 98 -5 103 -8 9 -6
54 -14 79 -14 24 0 34 -19 11 -20 -10 -1 -36 -2 -58 -4 -45 -4 -105 11 -105
26 0 6 -9 5 -21 -1 -13 -7 -36 -9 -62 -4 -23 4 -53 8 -67 9 -14 1 -47 5 -75 8
-51 7 -52 4 -2 -7 15 -4 27 -13 27 -21 0 -9 9 -15 24 -15 32 0 86 -20 86 -32
0 -9 -40 -1 -50 11 -3 3 -23 7 -45 8 -22 2 -69 5 -105 7 -36 3 -76 5 -89 5
-13 1 -21 4 -17 8 4 4 43 6 87 4 85 -3 102 12 29 24 -67 11 -48 45 25 45 39 0
87 19 79 31 -3 5 -18 9 -34 9 -16 0 -31 4 -34 8 -9 15 167 9 183 -6 7 -7 16
-10 19 -7 4 3 0 10 -8 15 -8 6 -12 10 -8 10 3 0 14 3 24 7 14 5 16 2 12 -15
-7 -26 -2 -28 18 -7 12 12 13 15 2 16 -13 1 35 16 60 18 7 0 15 -6 19 -15z
m468 -11 c39 -4 78 -6 88 -4 9 1 17 -3 17 -10 0 -10 3 -10 12 -1 9 9 17 5 34
-13 15 -16 35 -26 56 -26 61 -3 66 -4 74 -11 4 -5 -2 -8 -14 -8 -24 0 -30 -15
-9 -24 6 -3 -1 -3 -18 0 -144 32 -180 43 -177 53 1 7 -14 11 -40 12 -24 0 -73
1 -110 2 -36 1 -64 -1 -61 -5 2 -5 17 -8 32 -8 15 0 35 -6 44 -12 14 -11 2
-13 -73 -15 -53 -1 -90 2 -90 7 0 6 -9 10 -20 10 -11 0 -20 4 -20 8 0 5 14 8
30 7 35 -2 27 11 -10 18 -14 2 -4 4 21 4 26 0 51 3 56 6 4 3 27 2 51 -3 50 -9
56 2 10 18 l-33 11 40 -4 c22 -2 72 -8 110 -12z m77 -84 c3 -9 127 -35 196
-41 7 -1 11 -6 9 -12 -2 -6 -22 -10 -45 -8 -33 3 -42 0 -42 -12 0 -12 -10 -16
-35 -16 -22 0 -44 -8 -58 -21 -17 -16 -33 -20 -72 -18 -27 2 -53 7 -57 13 -4
6 -8 1 -8 -11 0 -19 -6 -23 -30 -23 -16 0 -30 4 -30 9 0 5 11 8 24 7 21 -3 24
1 21 23 -2 19 3 27 18 31 27 7 33 27 10 33 -11 3 -7 5 12 7 81 5 102 13 66 25
-12 3 -19 11 -16 16 8 13 33 11 37 -2z m-603 -175 c21 -4 27 -11 24 -23 -3
-12 6 -23 29 -34 18 -9 29 -17 23 -18 -14 -2 62 -20 113 -26 28 -3 42 -10 42
-20 0 -8 4 -12 9 -9 4 3 25 -4 47 -14 l38 -20 -34 0 c-19 0 -42 -5 -50 -10
-11 -8 1 -10 40 -8 38 2 54 7 52 16 -2 14 29 9 91 -14 20 -8 46 -14 57 -14 12
0 22 -9 25 -23 5 -19 13 -22 45 -22 22 0 45 -6 52 -13 11 -11 8 -12 -12 -8
-14 3 -97 8 -185 11 -88 3 -176 10 -195 16 -19 5 -60 13 -90 15 -52 5 -79 13
-124 36 -12 6 -16 6 -12 0 3 -6 -2 -8 -14 -5 -16 4 -17 7 -5 19 7 8 23 14 34
14 12 0 21 5 21 10 0 6 11 8 26 4 19 -5 25 -4 20 5 -4 6 -22 11 -41 11 -35 0
-65 21 -65 46 0 9 -11 14 -34 14 -19 0 -38 5 -41 10 -4 7 17 9 59 7 78 -5 88
7 15 17 -41 6 -49 9 -39 20 8 11 8 16 -2 20 -13 6 28 1 81 -10z m-119 -294
c10 0 21 -4 24 -9 6 -8 40 -17 101 -25 53 -7 120 -42 122 -62 1 -18 -3 -19
-55 -13 -31 4 -76 12 -99 17 -39 8 -43 7 -43 -9 0 -15 7 -19 34 -19 19 0 41
-7 50 -15 8 -8 21 -15 28 -16 9 0 9 -2 -2 -6 -17 -7 -40 -29 -40 -38 0 -3 5
-3 12 1 7 5 8 3 4 -5 -9 -15 23 -42 42 -36 6 2 12 0 12 -4 0 -14 -22 -19 -57
-13 -21 3 -33 0 -33 -7 0 -10 41 -16 84 -12 10 1 29 -6 42 -14 13 -8 29 -15
36 -15 9 0 9 3 -2 10 -12 8 -11 10 8 10 26 0 40 26 23 43 -18 18 -13 27 19 27
23 0 30 -4 30 -20 0 -25 27 -26 53 -3 18 17 19 17 32 0 6 -9 20 -17 29 -17 9
0 16 -4 16 -10 0 -5 -9 -10 -21 -10 -14 0 -19 -5 -16 -14 5 -12 -2 -13 -31 -9
-20 2 -50 9 -66 14 -52 16 -65 -12 -13 -31 17 -6 40 -16 50 -21 10 -5 22 -7
27 -4 6 4 10 -5 10 -19 0 -23 -4 -26 -32 -25 -32 1 -32 1 -8 10 23 8 23 8 -6
6 -21 -2 -30 1 -27 9 2 6 -2 14 -10 17 -18 7 -90 -17 -80 -26 10 -11 -46 -8
-68 3 -29 16 -23 27 14 26 54 -2 41 17 -15 21 -58 5 -166 28 -176 38 -11 10
19 23 40 17 16 -4 19 0 16 19 -2 17 2 24 14 24 10 0 18 3 18 8 1 51 -1 56 -15
51 -9 -4 -15 0 -15 10 0 10 -9 16 -24 16 -33 0 -57 10 -50 21 3 5 -3 9 -13 9
-16 1 -53 22 -53 31 0 2 36 4 80 4 44 0 80 3 80 6 0 4 -26 12 -59 18 -56 11
-58 12 -53 39 3 15 7 21 9 15 3 -7 13 -13 23 -13z m313 -369 c-4 -16 4 -19 68
-25 40 -4 67 -11 61 -15 -9 -5 -4 -11 13 -19 15 -7 31 -10 36 -6 5 3 16 -2 25
-11 11 -10 20 -13 26 -7 6 6 22 7 39 2 18 -5 31 -5 35 2 4 6 10 5 16 -3 8 -11
11 -12 15 -1 4 10 8 9 18 -5 7 -10 17 -14 21 -10 5 4 2 13 -6 18 -10 7 9 8 60
3 41 -3 80 -11 87 -16 7 -5 16 -7 21 -5 10 7 38 -10 30 -18 -3 -4 -25 -1 -47
6 -46 14 -64 6 -35 -15 25 -19 12 -31 -16 -16 -13 7 -47 13 -77 15 -31 1 -58
8 -63 14 -5 9 -45 14 -126 16 -71 2 -137 9 -164 18 -108 36 -164 71 -96 60 19
-3 36 -1 40 6 5 7 -2 11 -16 12 -23 1 -23 1 2 9 37 12 39 12 33 -9z m-110 -85
c12 4 93 -15 131 -31 15 -6 17 -5 11 5 -8 13 -11 14 180 -10 33 -4 54 -8 48
-9 -7 0 -13 -6 -13 -13 0 -6 3 -8 7 -5 3 4 12 2 19 -3 10 -9 57 -17 134 -22
36 -3 61 3 55 12 -3 6 -2 10 4 10 5 0 12 -4 15 -8 3 -5 30 -14 61 -21 59 -13
96 -38 74 -51 -6 -5 -24 -4 -38 1 -45 15 -153 27 -141 15 18 -18 89 -35 93
-22 3 7 10 4 19 -7 9 -12 37 -21 88 -28 116 -16 120 -17 120 -41 0 -20 -3 -21
-74 -15 -49 5 -76 3 -78 -4 -2 -7 -21 -6 -58 4 -63 18 -169 27 -175 16 -5 -7
79 -29 110 -29 8 0 15 -4 15 -9 0 -5 8 -12 18 -14 11 -3 7 -5 -10 -6 -15 0
-30 4 -33 9 -3 6 -13 10 -21 10 -8 0 -13 -3 -11 -7 3 -5 -24 -8 -60 -8 -49 1
-68 5 -78 18 -6 9 -15 14 -18 10 -4 -3 -10 2 -13 12 -4 9 -2 20 5 24 8 5 6 12
-7 25 -14 12 -42 18 -103 20 -46 2 -100 11 -120 20 -20 8 -39 12 -43 9 -3 -4
-6 0 -6 7 0 7 -3 10 -7 7 -3 -4 -11 -2 -18 3 -19 15 -85 23 -85 10 0 -7 9 -14
20 -17 11 -3 17 -10 13 -16 -4 -6 0 -8 9 -4 9 3 24 0 35 -8 17 -13 16 -14 -10
-20 -33 -9 -33 -11 -4 -37 14 -13 17 -18 6 -15 -9 3 -38 9 -65 13 -39 6 -103
32 -123 49 -10 10 112 -5 124 -15 12 -10 15 -9 15 4 0 26 -21 41 -55 40 -43
-1 -95 15 -92 28 1 6 -9 15 -23 19 -24 7 -24 7 5 8 21 1 26 4 16 10 -11 7 -11
10 0 17 7 4 14 3 17 -4 2 -6 19 -14 38 -18 19 -3 34 -11 34 -18 0 -6 5 -4 10
4 5 8 10 11 10 5 0 -6 28 -10 63 -10 34 -1 81 -3 105 -7 65 -9 50 6 -28 26
-45 11 -70 23 -70 32 0 9 -11 14 -31 14 -17 0 -28 4 -24 10 3 6 1 10 -4 10 -6
0 -11 8 -10 18 0 9 3 12 5 5 3 -7 11 -10 17 -7z m263 -389 c25 -6 40 -16 37
-23 -5 -13 24 -27 38 -18 5 3 9 -1 9 -9 0 -7 11 -20 25 -27 35 -19 31 -27 -12
-22 -26 2 -34 0 -24 -6 10 -8 11 -11 1 -17 -8 -5 -18 -1 -26 10 -10 13 -33 20
-82 24 -69 6 -102 21 -102 46 0 7 -7 15 -15 19 -23 8 -18 28 5 21 13 -4 22 -1
26 9 6 16 45 14 120 -7z m-12 -323 c7 -9 24 -17 38 -17 14 -1 24 -5 22 -9 -4
-6 18 -12 91 -23 71 -11 125 -38 125 -63 0 -6 18 -13 40 -17 59 -10 56 -20 -7
-22 -46 -2 -58 1 -79 22 -14 14 -29 23 -33 21 -4 -3 -20 6 -36 20 -32 27 -34
28 -55 13 -13 -9 -12 -10 2 -5 10 3 20 1 23 -4 4 -6 -11 -9 -35 -8 -28 1 -46
7 -53 19 -9 14 -14 16 -26 6 -12 -10 -13 -8 -7 16 5 23 3 27 -15 27 -18 0 -19
-2 -9 -15 10 -13 9 -15 -9 -15 -11 0 -39 7 -62 16 -29 12 -37 19 -27 25 7 5 9
9 3 10 -18 2 39 17 69 18 16 1 34 -6 40 -15z m487 -205 c29 -6 59 -18 67 -25
7 -8 24 -14 38 -14 13 0 24 -5 24 -11 0 -6 7 -9 15 -5 8 3 15 1 15 -5 0 -6 6
-9 13 -6 6 2 18 -2 26 -10 11 -13 1 -14 -79 -9 -51 2 -101 0 -111 -5 -11 -5
-27 -13 -37 -18 -11 -5 -25 -5 -33 0 -8 4 -25 6 -39 3 -24 -5 -24 -5 -6 10 10
8 20 27 22 41 1 14 7 32 13 39 6 7 8 16 4 19 -9 10 9 9 68 -4z"/>
<path d="M8935 6089 c-44 -3 -74 -6 -66 -7 11 -2 10 -7 -3 -27 -10 -15 -16
-46 -16 -80 0 -53 1 -55 28 -56 15 0 21 -3 14 -6 -19 -7 -4 -23 23 -23 14 0
26 7 29 18 3 9 4 -2 2 -25 -4 -42 6 -58 17 -29 6 15 47 11 47 -4 0 -26 -13
-37 -37 -32 -21 4 -25 2 -20 -12 9 -22 -10 -20 -30 4 -16 18 -18 18 -35 3 -14
-13 -18 -13 -18 -2 0 11 -2 11 -10 -1 -17 -26 -12 -50 10 -50 15 0 22 -9 27
-30 4 -23 11 -30 29 -30 19 0 24 -5 24 -25 0 -22 -4 -25 -35 -25 -33 0 -35 2
-29 25 5 20 3 25 -14 25 -16 0 -21 -8 -24 -38 -2 -21 2 -49 9 -62 l13 -25 0
27 c0 15 4 29 9 32 14 9 22 -23 11 -44 -12 -22 -13 -41 -2 -23 5 8 13 9 22 3
19 -12 8 -22 -31 -26 -41 -5 -51 -14 -16 -14 24 0 26 -2 17 -26 -6 -14 -7 -30
-4 -36 4 -6 0 -14 -7 -19 -10 -6 -5 -9 15 -9 36 0 29 -10 -10 -14 -25 -3 -29
-8 -32 -36 -3 -32 -3 -32 32 -28 37 4 50 -7 19 -15 -14 -4 -12 -5 5 -6 12 0
22 4 22 9 0 6 7 10 15 10 10 0 15 -10 15 -29 0 -28 -1 -29 -28 -19 -44 17 -74
-8 -79 -66 -2 -29 0 -46 7 -46 6 0 8 5 5 10 -3 6 -1 10 4 10 6 0 11 -4 11 -10
0 -5 14 -10 31 -10 17 0 28 4 24 10 -3 6 1 10 10 10 9 0 13 -4 10 -10 -4 -6
38 -10 118 -10 120 0 125 1 120 20 -4 15 0 20 15 20 11 0 22 -6 25 -12 2 -7 8
17 12 54 8 72 4 88 -25 88 -12 0 -17 6 -16 18 2 9 9 17 17 17 8 0 17 5 21 11
5 7 13 586 9 661 -1 14 -181 21 -306 12z"/>
<path d="M8728 6083 l-48 -4 0 -418 0 -418 42 -16 c23 -9 43 -16 44 -14 3 4
16 877 12 875 -1 -1 -24 -3 -50 -5z"/>
<path d="M8406 5942 c1 -59 -2 -116 -7 -127 -5 -14 -8 -3 -9 35 -1 43 -3 50
-10 33 -6 -15 -17 -22 -32 -22 -13 1 -36 -6 -53 -15 -28 -15 -31 -15 -43 1 -7
10 -10 23 -7 31 2 7 0 10 -5 7 -6 -3 -10 -13 -10 -22 0 -13 -3 -13 -15 -3 -12
10 -15 9 -15 -5 0 -9 -6 -15 -12 -12 -7 2 -18 -3 -25 -12 -10 -14 -11 -13 -7
5 5 19 2 21 -47 18 -28 -2 -60 -6 -69 -9 -10 -3 -21 -2 -24 3 -3 5 -16 9 -28
8 -16 -1 -22 -7 -20 -19 4 -21 -21 -22 -42 -1 -15 14 -16 14 -16 0 0 -9 -7
-16 -15 -16 -17 0 -19 -9 -5 -30 8 -13 10 -12 10 3 0 10 8 17 20 17 11 0 20
-4 20 -10 0 -5 -7 -10 -15 -10 -8 0 -15 -4 -15 -10 0 -15 -27 -12 -45 6 -9 9
-13 24 -10 34 4 13 0 20 -15 25 -11 4 -18 11 -15 16 4 5 -1 9 -9 9 -10 0 -13
-6 -10 -15 4 -8 10 -15 15 -15 5 0 9 -4 9 -10 0 -21 -28 -9 -34 15 l-6 25 -22
-19 c-11 -11 -25 -18 -30 -15 -4 3 -8 -2 -8 -11 0 -9 5 -13 10 -10 6 3 10 0
10 -7 1 -9 4 -8 13 3 10 13 15 14 24 4 7 -7 10 -15 8 -17 -2 -2 6 -15 18 -30
22 -25 24 -25 105 -18 45 5 89 14 97 20 12 10 15 10 15 0 0 -6 6 -10 13 -7 6
2 11 11 9 21 -2 9 2 16 9 16 9 0 9 3 0 14 -9 10 -8 15 4 20 9 3 15 0 15 -9 0
-9 10 -15 28 -16 15 0 21 -3 15 -6 -7 -2 -13 -12 -13 -21 -1 -15 -2 -15 -11 1
-13 23 -29 22 -29 -2 0 -17 7 -19 70 -18 47 1 71 6 75 15 3 7 10 10 16 7 6 -4
8 -13 5 -21 -3 -8 -1 -24 5 -36 9 -21 9 -21 5 6 -3 22 1 30 15 33 11 3 19 10
19 17 0 7 3 7 8 1 8 -12 52 -16 52 -5 0 13 36 18 54 8 12 -7 16 -25 18 -71 1
-41 3 -49 5 -25 3 26 10 39 24 43 11 4 19 15 19 28 -1 20 -2 20 -11 4 -6 -9
-13 -15 -17 -13 -4 2 -7 70 -7 150 0 91 -4 146 -10 146 -6 0 -10 -42 -9 -108z"/>
<path d="M576 6019 c-16 -4 -33 -6 -37 -4 -4 3 -9 -1 -12 -7 -4 -10 -7 -11
-18 0 -18 17 -30 15 -22 -5 5 -13 3 -15 -13 -8 -33 15 -123 18 -139 5 -8 -7
-15 -9 -15 -4 0 12 -93 11 -102 -1 -5 -6 -8 -6 -8 2 0 12 -50 10 -70 -2 -6 -3
-10 -3 -10 2 0 4 -19 8 -43 7 -82 -1 -87 -2 -87 -28 l0 -23 218 5 c119 2 221
8 226 13 14 12 59 11 51 -1 -4 -6 23 -10 75 -10 62 0 80 3 74 13 -6 10 -4 10
7 0 17 -16 33 -17 23 -1 -5 7 -2 9 7 6 35 -13 59 -19 59 -14 0 15 -52 54 -72
53 -13 -1 -32 2 -43 5 -11 3 -33 2 -49 -3z"/>
<path d="M8440 5851 l0 -59 30 11 c20 8 33 8 38 2 9 -13 35 -19 28 -6 -3 5 1
14 10 21 8 7 12 20 9 29 -4 11 -3 13 5 5 18 -18 -12 -88 -40 -92 -12 -2 -27 2
-31 10 -7 10 -9 9 -9 -4 0 -10 4 -18 10 -18 5 0 7 -7 4 -15 -8 -19 -4 -19 34
1 19 9 32 23 32 35 0 10 6 19 14 19 8 0 21 7 30 15 14 14 18 13 37 -6 15 -15
20 -17 16 -6 -3 8 -1 18 6 21 9 5 9 7 1 11 -7 3 -9 16 -6 28 5 20 4 21 -13 7
-10 -8 -16 -10 -12 -3 4 6 2 15 -4 19 -8 4 -7 9 2 15 7 4 10 11 6 16 -12 12
-25 -15 -19 -43 3 -15 0 -24 -8 -24 -7 0 -10 7 -6 15 3 8 1 15 -4 15 -5 0 -11
-8 -13 -17 -4 -17 -5 -17 -6 0 -1 16 -24 21 -113 21 -20 0 -19 18 2 28 11 5 9
7 -7 7 -21 1 -23 -3 -23 -58z"/>
<path d="M7805 5680 c-3 -5 -12 -7 -19 -4 -11 4 -13 -8 -8 -62 3 -41 1 -65 -4
-61 -6 3 -16 2 -24 -4 -10 -5 84 -8 250 -8 246 1 262 2 221 16 -23 8 -49 12
-57 9 -8 -3 -14 -1 -14 4 0 6 -11 10 -24 10 -14 0 -28 5 -31 11 -4 6 -13 8
-21 5 -8 -3 -14 -2 -14 2 0 9 -47 30 -88 38 -17 4 -32 11 -32 16 0 5 -6 8 -12
6 -7 -1 -26 1 -42 6 -20 5 -32 3 -38 -6 -8 -10 -11 -10 -15 0 -2 6 -10 9 -16
5 -6 -4 -8 0 -4 10 7 18 2 23 -8 7z"/>
<path d="M8240 5204 c5 -45 0 -62 -17 -59 -10 2 -45 6 -78 9 -33 3 -73 8 -90
11 -29 6 -29 6 -11 -9 11 -9 26 -16 33 -16 7 0 10 -6 7 -14 -5 -13 24 -29 78
-40 31 -7 48 11 21 22 -10 4 -19 13 -20 20 -3 14 13 16 22 2 3 -6 16 -8 29 -4
19 5 22 1 24 -33 4 -52 9 -52 19 -1 l9 43 7 -42 c9 -53 27 -56 28 -5 1 57 -2
127 -7 131 -8 8 -15 -7 -18 -35 -2 -15 -8 -30 -14 -32 -6 -2 -9 8 -6 27 3 16
0 32 -6 36 -7 5 -11 0 -10 -11z"/>
<path d="M5945 3870 c-3 -5 0 -10 7 -12 11 -4 -54 -137 -73 -149 -6 -4 -3 -20
8 -42 15 -31 27 -39 72 -52 54 -17 74 -14 53 7 -7 7 -12 43 -12 90 0 67 3 80
20 90 11 7 20 20 20 28 0 9 6 22 13 29 10 11 8 12 -10 7 -12 -4 -38 -3 -58 3
-19 5 -37 6 -40 1z"/>
</g>
</svg>
